<?xml version="1.0" encoding="us-ascii" standalone="no"?><svg xmlns="http://www.w3.org/2000/svg" xmlns:xlink="http://www.w3.org/1999/xlink" contentStyleType="text/css" height="694px" preserveAspectRatio="none" style="width:1109px;height:694px;background:#FFFFFF;" version="1.1" viewBox="0 0 1109 694" width="1109px" zoomAndPan="magnify"><defs/><g><text fill="#000000" font-family="sans-serif" font-size="14" font-weight="bold" lengthAdjust="spacing" textLength="361" x="370" y="23.5352">Stacked State for eth_estimateGas (class diagram)</text><!--class ValueState--><g id="elem_ValueState"><rect codeLine="5" fill="#F1F1F1" height="138.9297" id="ValueState" rx="2.5" ry="2.5" style="stroke:#181818;stroke-width:0.5;" width="145" x="957" y="111.4883"/><ellipse cx="990.45" cy="127.4883" fill="#EB937F" rx="11" ry="11" style="stroke:#181818;stroke-width:1.0;"/><path d="M994.5643,133.4883 L986.8445,133.4883 L986.8445,121.0952 L994.5643,121.0952 L994.5643,123.2534 L989.2933,123.2534 L989.2933,125.9263 L994.0662,125.9263 L994.0662,128.0845 L989.2933,128.0845 L989.2933,131.3301 L994.5643,131.3301 Z " fill="#000000"/><text fill="#000000" font-family="sans-serif" font-size="14" lengthAdjust="spacing" textLength="72" x="1008.55" y="132.7793">ValueState</text><line style="stroke:#181818;stroke-width:0.5;" x1="958" x2="1101" y1="143.4883" y2="143.4883"/><text fill="#000000" font-family="sans-serif" font-size="14" lengthAdjust="spacing" textLength="54" x="963" y="161.0234">INVALID</text><text fill="#000000" font-family="sans-serif" font-size="14" lengthAdjust="spacing" textLength="133" x="963" y="177.5117">NOT_YET_FETCHED</text><text fill="#000000" font-family="sans-serif" font-size="14" lengthAdjust="spacing" textLength="60" x="963" y="194">PRESENT</text><text fill="#000000" font-family="sans-serif" font-size="14" lengthAdjust="spacing" textLength="56" x="963" y="210.4883">MISSING</text><text fill="#000000" font-family="sans-serif" font-size="14" lengthAdjust="spacing" textLength="65" x="963" y="226.9766">UPDATED</text><text fill="#000000" font-family="sans-serif" font-size="14" lengthAdjust="spacing" textLength="60" x="963" y="243.4648">DELETED</text></g><!--class Entry--><g id="elem_Entry"><rect codeLine="14" fill="#F1F1F1" height="72.9766" id="Entry" rx="2.5" ry="2.5" style="stroke:#181818;stroke-width:0.5;" width="67" x="872" y="144.4883"/><ellipse cx="887" cy="160.4883" fill="#ADD1B2" rx="11" ry="11" style="stroke:#181818;stroke-width:1.0;"/><path d="M889.9731,166.1313 Q889.3921,166.4302 888.7529,166.5796 Q888.1138,166.729 887.4082,166.729 Q884.9014,166.729 883.5815,165.0771 Q882.2617,163.4253 882.2617,160.3042 Q882.2617,157.1748 883.5815,155.5229 Q884.9014,153.8711 887.4082,153.8711 Q888.1138,153.8711 888.7612,154.0205 Q889.4087,154.1699 889.9731,154.4688 L889.9731,157.1914 Q889.3423,156.6104 888.7488,156.3406 Q888.1553,156.0708 887.5244,156.0708 Q886.1797,156.0708 885.4949,157.1375 Q884.8101,158.2041 884.8101,160.3042 Q884.8101,162.396 885.4949,163.4626 Q886.1797,164.5293 887.5244,164.5293 Q888.1553,164.5293 888.7488,164.2595 Q889.3423,163.9897 889.9731,163.4087 Z " fill="#000000"/><text fill="#000000" font-family="sans-serif" font-size="14" lengthAdjust="spacing" textLength="35" x="901" y="165.7793">Entry</text><line style="stroke:#181818;stroke-width:0.5;" x1="873" x2="938" y1="176.4883" y2="176.4883"/><ellipse cx="883" cy="190.2324" fill="none" rx="3" ry="3" style="stroke:#038048;stroke-width:1.0;"/><text fill="#000000" font-family="sans-serif" font-size="14" lengthAdjust="spacing" textLength="33" x="892" y="194.0234">state</text><ellipse cx="883" cy="206.7207" fill="none" rx="3" ry="3" style="stroke:#038048;stroke-width:1.0;"/><text fill="#000000" font-family="sans-serif" font-size="14" lengthAdjust="spacing" textLength="36" x="892" y="210.5117">value</text></g><g id="elem_GMN4"><path d="M792.5,49.4883 L792.5,74.7988 L1018.5,74.7988 L1018.5,59.4883 L1008.5,49.4883 L792.5,49.4883 " fill="#FEFFDD" style="stroke:#181818;stroke-width:0.5;"/><path d="M1008.5,49.4883 L1008.5,59.4883 L1018.5,59.4883 L1008.5,49.4883 " fill="#FEFFDD" style="stroke:#181818;stroke-width:1.0;"/><text fill="#000000" font-family="sans-serif" font-size="13" lengthAdjust="spacing" textLength="205" x="798.5" y="67.0566">Value ("cache line") state + value</text></g><!--class UpdatableReferenceCache--><g id="elem_UpdatableReferenceCache"><rect codeLine="20" fill="#F1F1F1" height="122.4414" id="UpdatableReferenceCache" rx="2.5" ry="2.5" style="stroke:#181818;stroke-width:0.5;" width="310" x="750.5" y="365.4883"/><ellipse cx="805.25" cy="381.4883" fill="#ADD1B2" rx="11" ry="11" style="stroke:#181818;stroke-width:1.0;"/><path d="M808.2231,387.1313 Q807.6421,387.4302 807.0029,387.5796 Q806.3638,387.729 805.6582,387.729 Q803.1514,387.729 801.8315,386.0771 Q800.5117,384.4253 800.5117,381.3042 Q800.5117,378.1748 801.8315,376.5229 Q803.1514,374.8711 805.6582,374.8711 Q806.3638,374.8711 807.0112,375.0205 Q807.6587,375.1699 808.2231,375.4688 L808.2231,378.1914 Q807.5923,377.6104 806.9988,377.3406 Q806.4053,377.0708 805.7744,377.0708 Q804.4297,377.0708 803.7449,378.1375 Q803.0601,379.2041 803.0601,381.3042 Q803.0601,383.396 803.7449,384.4626 Q804.4297,385.5293 805.7744,385.5293 Q806.4053,385.5293 806.9988,385.2595 Q807.5923,384.9897 808.2231,384.4087 Z " fill="#000000"/><text fill="#000000" font-family="sans-serif" font-size="14" lengthAdjust="spacing" textLength="180" x="825.75" y="386.7793">UpdatableReferenceCache</text><rect fill="#FFFFFF" height="16.1328" style="stroke:#181818;stroke-width:1.0;stroke-dasharray:2.0,2.0;" width="10" x="1053.5" y="362.4883"/><text fill="#000000" font-family="sans-serif" font-size="12" font-style="italic" lengthAdjust="spacing" textLength="8" x="1054.5" y="375.0898">K</text><line style="stroke:#181818;stroke-width:0.5;" x1="751.5" x2="1059.5" y1="397.4883" y2="397.4883"/><ellipse cx="761.5" cy="411.2324" fill="#84BE84" rx="3" ry="3" style="stroke:#038048;stroke-width:1.0;"/><text fill="#000000" font-family="sans-serif" font-size="14" lengthAdjust="spacing" textLength="80" x="770.5" y="415.0234">Entry get(K)</text><ellipse cx="761.5" cy="427.7207" fill="#84BE84" rx="3" ry="3" style="stroke:#038048;stroke-width:1.0;"/><text fill="#000000" font-family="sans-serif" font-size="14" lengthAdjust="spacing" textLength="124" x="770.5" y="431.5117">updated(K,Object)</text><ellipse cx="761.5" cy="444.209" fill="#84BE84" rx="3" ry="3" style="stroke:#038048;stroke-width:1.0;"/><text fill="#000000" font-family="sans-serif" font-size="14" lengthAdjust="spacing" textLength="61" x="770.5" y="448">delete(K)</text><ellipse cx="761.5" cy="460.6973" fill="#84BE84" rx="3" ry="3" style="stroke:#038048;stroke-width:1.0;"/><text fill="#000000" font-family="sans-serif" font-size="14" lengthAdjust="spacing" textLength="284" x="770.5" y="464.4883">coalesceFrom(UpdatableReferenceCache)</text><ellipse cx="761.5" cy="477.1855" fill="#84BE84" rx="3" ry="3" style="stroke:#038048;stroke-width:1.0;"/><text fill="#000000" font-family="sans-serif" font-size="14" lengthAdjust="spacing" textLength="84" x="770.5" y="480.9766">fill(K,Object)</text></g><!--class CachingStateFrame--><g id="elem_CachingStateFrame"><rect codeLine="28" fill="#F1F1F1" height="245.8594" id="CachingStateFrame" rx="2.5" ry="2.5" style="stroke:#181818;stroke-width:0.5;" width="329" x="327" y="303.4883"/><ellipse cx="414.75" cy="319.4883" fill="#FA8072" rx="11" ry="11" style="stroke:#181818;stroke-width:1.0;"/><path d="M414.8633,314.8364 L413.7095,319.9082 L416.0254,319.9082 Z M413.3691,312.5952 L416.3657,312.5952 L419.7109,324.9883 L417.2622,324.9883 L416.4985,321.9253 L413.2197,321.9253 L412.4727,324.9883 L410.0239,324.9883 Z " fill="#000000"/><text fill="#000000" font-family="sans-serif" font-size="14" font-style="italic" lengthAdjust="spacing" textLength="133" x="435.25" y="324.7793">CachingStateFrame</text><rect fill="#FFFFFF" height="16.1328" style="stroke:#181818;stroke-width:1.0;stroke-dasharray:2.0,2.0;" width="10" x="649" y="300.4883"/><text fill="#000000" font-family="sans-serif" font-size="12" font-style="italic" lengthAdjust="spacing" textLength="8" x="650" y="313.0898">K</text><line style="stroke:#181818;stroke-width:0.5;" x1="328" x2="655" y1="335.4883" y2="335.4883"/><polygon fill="none" points="338,344.2324,342,348.2324,338,352.2324,334,348.2324" style="stroke:#B38D22;stroke-width:1.0;"/><text fill="#000000" font-family="sans-serif" font-size="14" lengthAdjust="spacing" textLength="88" x="347" y="353.0234">parentFrame</text><polygon fill="none" points="338,360.7207,342,364.7207,338,368.7207,334,364.7207" style="stroke:#B38D22;stroke-width:1.0;"/><text fill="#000000" font-family="sans-serif" font-size="14" lengthAdjust="spacing" textLength="96" x="347" y="369.5117">accountCache</text><polygon fill="none" points="338,377.209,342,381.209,338,385.209,334,381.209" style="stroke:#B38D22;stroke-width:1.0;"/><text fill="#000000" font-family="sans-serif" font-size="14" lengthAdjust="spacing" textLength="81" x="347" y="386">tokenCache</text><line style="stroke:#181818;stroke-width:0.5;" x1="328" x2="655" y1="392.9531" y2="392.9531"/><ellipse cx="338" cy="406.6973" fill="#84BE84" rx="3" ry="3" style="stroke:#038048;stroke-width:1.0;"/><text fill="#000000" font-family="sans-serif" font-size="14" lengthAdjust="spacing" textLength="303" x="347" y="410.4883">CachingStateFrame(upstreamFrame,Class...)</text><ellipse cx="338" cy="423.1855" fill="#84BE84" rx="3" ry="3" style="stroke:#038048;stroke-width:1.0;"/><text fill="#000000" font-family="sans-serif" font-size="14" lengthAdjust="spacing" textLength="88" x="347" y="426.9766">getAccount()</text><ellipse cx="338" cy="439.6738" fill="#84BE84" rx="3" ry="3" style="stroke:#038048;stroke-width:1.0;"/><text fill="#000000" font-family="sans-serif" font-size="14" lengthAdjust="spacing" textLength="86" x="347" y="443.4648">setAccount()</text><ellipse cx="338" cy="456.1621" fill="#84BE84" rx="3" ry="3" style="stroke:#038048;stroke-width:1.0;"/><text fill="#000000" font-family="sans-serif" font-size="14" lengthAdjust="spacing" textLength="108" x="347" y="459.9531">deleteAccount()</text><ellipse cx="338" cy="472.6504" fill="#84BE84" rx="3" ry="3" style="stroke:#038048;stroke-width:1.0;"/><text fill="#000000" font-family="sans-serif" font-size="14" lengthAdjust="spacing" textLength="75" x="347" y="476.4414">getToken()</text><ellipse cx="338" cy="489.1387" fill="#84BE84" rx="3" ry="3" style="stroke:#038048;stroke-width:1.0;"/><text fill="#000000" font-family="sans-serif" font-size="14" lengthAdjust="spacing" textLength="73" x="347" y="492.9297">setToken()</text><ellipse cx="338" cy="505.627" fill="#84BE84" rx="3" ry="3" style="stroke:#038048;stroke-width:1.0;"/><text fill="#000000" font-family="sans-serif" font-size="14" lengthAdjust="spacing" textLength="95" x="347" y="509.418">deleteToken()</text><ellipse cx="338" cy="522.1152" fill="#84BE84" rx="3" ry="3" style="stroke:#038048;stroke-width:1.0;"/><text fill="#000000" font-family="sans-serif" font-size="14" lengthAdjust="spacing" textLength="187" x="347" y="525.9063">updatesFromDownstream()</text><ellipse cx="338" cy="538.6035" fill="#84BE84" rx="3" ry="3" style="stroke:#038048;stroke-width:1.0;"/><text fill="#000000" font-family="sans-serif" font-size="14" lengthAdjust="spacing" textLength="98" x="347" y="542.3945">getUpstream()</text></g><!--class Accessor--><g id="elem_Accessor"><rect codeLine="43" fill="#F1F1F1" height="89.4648" id="Accessor" rx="2.5" ry="2.5" style="stroke:#181818;stroke-width:0.5;" width="175" x="6" y="381.9883"/><ellipse cx="47.1" cy="397.9883" fill="#B4A7E5" rx="11" ry="11" style="stroke:#181818;stroke-width:1.0;"/><path d="M43.0277,393.7534 L43.0277,391.5952 L50.4071,391.5952 L50.4071,393.7534 L47.9418,393.7534 L47.9418,401.8301 L50.4071,401.8301 L50.4071,403.9883 L43.0277,403.9883 L43.0277,401.8301 L45.4931,401.8301 L45.4931,393.7534 Z " fill="#000000"/><text fill="#000000" font-family="sans-serif" font-size="14" font-style="italic" lengthAdjust="spacing" textLength="61" x="66.9" y="403.2793">Accessor</text><rect fill="#FFFFFF" height="16.1328" style="stroke:#181818;stroke-width:1.0;stroke-dasharray:2.0,2.0;" width="22" x="162" y="378.9883"/><text fill="#000000" font-family="sans-serif" font-size="12" font-style="italic" lengthAdjust="spacing" textLength="20" x="163" y="391.5898">K,V</text><line style="stroke:#181818;stroke-width:0.5;" x1="7" x2="180" y1="413.9883" y2="413.9883"/><ellipse cx="17" cy="427.7324" fill="#84BE84" rx="3" ry="3" style="stroke:#038048;stroke-width:1.0;"/><text fill="#000000" font-family="sans-serif" font-size="14" lengthAdjust="spacing" textLength="149" x="26" y="431.5234">Optional&lt;V&gt; get(key)</text><ellipse cx="17" cy="444.2207" fill="#84BE84" rx="3" ry="3" style="stroke:#038048;stroke-width:1.0;"/><text fill="#000000" font-family="sans-serif" font-size="14" lengthAdjust="spacing" textLength="93" x="26" y="448.0117">set(key,value)</text><ellipse cx="17" cy="460.709" fill="#84BE84" rx="3" ry="3" style="stroke:#038048;stroke-width:1.0;"/><text fill="#000000" font-family="sans-serif" font-size="14" lengthAdjust="spacing" textLength="75" x="26" y="464.5">delete(key)</text></g><!--class GroundTruthAccessor--><g id="elem_GroundTruthAccessor"><rect codeLine="49" fill="#F1F1F1" height="56.4883" id="GroundTruthAccessor" rx="2.5" ry="2.5" style="stroke:#181818;stroke-width:0.5;" width="207" x="10" y="152.9883"/><ellipse cx="25" cy="168.9883" fill="#B4A7E5" rx="11" ry="11" style="stroke:#181818;stroke-width:1.0;"/><path d="M20.9277,164.7534 L20.9277,162.5952 L28.3071,162.5952 L28.3071,164.7534 L25.8418,164.7534 L25.8418,172.8301 L28.3071,172.8301 L28.3071,174.9883 L20.9277,174.9883 L20.9277,172.8301 L23.3931,172.8301 L23.3931,164.7534 Z " fill="#000000"/><text fill="#000000" font-family="sans-serif" font-size="14" font-style="italic" lengthAdjust="spacing" textLength="151" x="39" y="174.2793">GroundTruthAccessor</text><rect fill="#FFFFFF" height="16.1328" style="stroke:#181818;stroke-width:1.0;stroke-dasharray:2.0,2.0;" width="22" x="198" y="149.9883"/><text fill="#000000" font-family="sans-serif" font-size="12" font-style="italic" lengthAdjust="spacing" textLength="20" x="199" y="162.5898">K,V</text><line style="stroke:#181818;stroke-width:0.5;" x1="11" x2="216" y1="184.9883" y2="184.9883"/><ellipse cx="21" cy="198.7324" fill="#84BE84" rx="3" ry="3" style="stroke:#038048;stroke-width:1.0;"/><text fill="#000000" font-family="sans-serif" font-size="14" lengthAdjust="spacing" textLength="149" x="30" y="202.5234">Optional&lt;V&gt; get(key)</text></g><!--class StackedStateFrames--><g id="elem_StackedStateFrames"><rect codeLine="53" fill="#F1F1F1" height="80.9766" id="StackedStateFrames" rx="2.5" ry="2.5" style="stroke:#181818;stroke-width:0.5;" width="336" x="323.5" y="140.4883"/><ellipse cx="412.75" cy="156.4883" fill="#ADD1B2" rx="11" ry="11" style="stroke:#181818;stroke-width:1.0;"/><path d="M415.7231,162.1313 Q415.1421,162.4302 414.5029,162.5796 Q413.8638,162.729 413.1582,162.729 Q410.6514,162.729 409.3315,161.0771 Q408.0117,159.4253 408.0117,156.3042 Q408.0117,153.1748 409.3315,151.5229 Q410.6514,149.8711 413.1582,149.8711 Q413.8638,149.8711 414.5112,150.0205 Q415.1587,150.1699 415.7231,150.4688 L415.7231,153.1914 Q415.0923,152.6104 414.4988,152.3406 Q413.9053,152.0708 413.2744,152.0708 Q411.9297,152.0708 411.2449,153.1375 Q410.5601,154.2041 410.5601,156.3042 Q410.5601,158.396 411.2449,159.4626 Q411.9297,160.5293 413.2744,160.5293 Q413.9053,160.5293 414.4988,160.2595 Q415.0923,159.9897 415.7231,159.4087 Z " fill="#000000"/><text fill="#000000" font-family="sans-serif" font-size="14" lengthAdjust="spacing" textLength="137" x="433.25" y="161.7793">StackedStateFrames</text><rect fill="#FFFFFF" height="16.1328" style="stroke:#181818;stroke-width:1.0;stroke-dasharray:2.0,2.0;" width="10" x="652.5" y="137.4883"/><text fill="#000000" font-family="sans-serif" font-size="12" font-style="italic" lengthAdjust="spacing" textLength="8" x="653.5" y="150.0898">K</text><line style="stroke:#181818;stroke-width:0.5;" x1="324.5" x2="658.5" y1="172.4883" y2="172.4883"/><rect fill="none" height="6" style="stroke:#C82930;stroke-width:1.0;" width="6" x="331.5" y="183.2324"/><text fill="#000000" font-family="sans-serif" font-size="14" lengthAdjust="spacing" textLength="35" x="343.5" y="190.0234">stack</text><line style="stroke:#181818;stroke-width:0.5;" x1="324.5" x2="658.5" y1="196.9766" y2="196.9766"/><ellipse cx="334.5" cy="210.7207" fill="#84BE84" rx="3" ry="3" style="stroke:#038048;stroke-width:1.0;"/><text fill="#000000" font-family="sans-serif" font-size="14" lengthAdjust="spacing" textLength="310" x="343.5" y="214.5117">StackedStateFrames(GroundTruthAccessor...)</text></g><!--class ROCachingStateFrame--><g id="elem_ROCachingStateFrame"><rect fill="#F1F1F1" height="32" id="ROCachingStateFrame" rx="2.5" ry="2.5" style="stroke:#181818;stroke-width:0.5;" width="185" x="234" y="586.4883"/><ellipse cx="249" cy="602.4883" fill="#ADD1B2" rx="11" ry="11" style="stroke:#181818;stroke-width:1.0;"/><path d="M251.9731,608.1313 Q251.3921,608.4302 250.7529,608.5796 Q250.1138,608.729 249.4082,608.729 Q246.9014,608.729 245.5815,607.0771 Q244.2617,605.4253 244.2617,602.3042 Q244.2617,599.1748 245.5815,597.5229 Q246.9014,595.8711 249.4082,595.8711 Q250.1138,595.8711 250.7612,596.0205 Q251.4087,596.1699 251.9731,596.4688 L251.9731,599.1914 Q251.3423,598.6104 250.7488,598.3406 Q250.1553,598.0708 249.5244,598.0708 Q248.1797,598.0708 247.4949,599.1375 Q246.8101,600.2041 246.8101,602.3042 Q246.8101,604.396 247.4949,605.4626 Q248.1797,606.5293 249.5244,606.5293 Q250.1553,606.5293 250.7488,606.2595 Q251.3423,605.9897 251.9731,605.4087 Z " fill="#000000"/><text fill="#000000" font-family="sans-serif" font-size="14" lengthAdjust="spacing" textLength="153" x="263" y="607.7793">ROCachingStateFrame</text></g><!--class RWCachingStateFrame--><g id="elem_RWCachingStateFrame"><rect fill="#F1F1F1" height="32" id="RWCachingStateFrame" rx="2.5" ry="2.5" style="stroke:#181818;stroke-width:0.5;" width="186" x="233.5" y="655.4883"/><ellipse cx="248.5" cy="671.4883" fill="#ADD1B2" rx="11" ry="11" style="stroke:#181818;stroke-width:1.0;"/><path d="M251.4731,677.1313 Q250.8921,677.4302 250.2529,677.5796 Q249.6138,677.729 248.9082,677.729 Q246.4014,677.729 245.0815,676.0771 Q243.7617,674.4253 243.7617,671.3042 Q243.7617,668.1748 245.0815,666.5229 Q246.4014,664.8711 248.9082,664.8711 Q249.6138,664.8711 250.2612,665.0205 Q250.9087,665.1699 251.4731,665.4688 L251.4731,668.1914 Q250.8423,667.6104 250.2488,667.3406 Q249.6553,667.0708 249.0244,667.0708 Q247.6797,667.0708 246.9949,668.1375 Q246.3101,669.2041 246.3101,671.3042 Q246.3101,673.396 246.9949,674.4626 Q247.6797,675.5293 249.0244,675.5293 Q249.6553,675.5293 250.2488,675.2595 Q250.8423,674.9897 251.4731,674.4087 Z " fill="#000000"/><text fill="#000000" font-family="sans-serif" font-size="14" lengthAdjust="spacing" textLength="154" x="262.5" y="676.7793">RWCachingStateFrame</text></g><!--class DatabaseBackedStateFrame--><g id="elem_DatabaseBackedStateFrame"><rect fill="#F1F1F1" height="32" id="DatabaseBackedStateFrame" rx="2.5" ry="2.5" style="stroke:#181818;stroke-width:0.5;" width="220" x="437.5" y="586.4883"/><ellipse cx="452.5" cy="602.4883" fill="#ADD1B2" rx="11" ry="11" style="stroke:#181818;stroke-width:1.0;"/><path d="M455.4731,608.1313 Q454.8921,608.4302 454.2529,608.5796 Q453.6138,608.729 452.9082,608.729 Q450.4014,608.729 449.0815,607.0771 Q447.7617,605.4253 447.7617,602.3042 Q447.7617,599.1748 449.0815,597.5229 Q450.4014,595.8711 452.9082,595.8711 Q453.6138,595.8711 454.2612,596.0205 Q454.9087,596.1699 455.4731,596.4688 L455.4731,599.1914 Q454.8423,598.6104 454.2488,598.3406 Q453.6553,598.0708 453.0244,598.0708 Q451.6797,598.0708 450.9949,599.1375 Q450.3101,600.2041 450.3101,602.3042 Q450.3101,604.396 450.9949,605.4626 Q451.6797,606.5293 453.0244,606.5293 Q453.6553,606.5293 454.2488,606.2595 Q454.8423,605.9897 455.4731,605.4087 Z " fill="#000000"/><text fill="#000000" font-family="sans-serif" font-size="14" lengthAdjust="spacing" textLength="188" x="466.5" y="607.7793">DatabaseBackedStateFrame</text></g><path d="M905.5,74.6344 C905.5,90.7607 905.5,120.5956 905.5,144.4104 " fill="none" style="stroke:#181818;stroke-width:1.0;stroke-dasharray:7.0,7.0;"/><path d="M939.4063,180.9883 C945.1544,180.9883 950.9026,180.9883 956.6508,180.9883 " fill="none" style="stroke:#181818;stroke-width:1.0;"/><polygon fill="none" points="939.4063,180.9883,945.4063,184.9883,951.4063,180.9883,945.4063,176.9883,939.4063,180.9883" style="stroke:#181818;stroke-width:1.0;"/><path d="M905.5,217.656 C905.5,256.3609 905.5,318.8294 905.5,365.1879 " fill="none" style="stroke:#181818;stroke-width:1.0;"/><polygon fill="#181818" points="905.5,365.1879,909.5,359.1879,905.5,353.1879,901.5,359.1879,905.5,365.1879" style="stroke:#181818;stroke-width:1.0;"/><path d="M491.5,221.6527 C491.5,244.2255 491.5,273.8447 491.5,303.484 " fill="none" style="stroke:#181818;stroke-width:1.0;"/><polygon fill="#181818" points="491.5,221.6527,487.5,227.6527,491.5,233.6527,495.5,227.6527,491.5,221.6527" style="stroke:#181818;stroke-width:1.0;"/><text fill="#000000" font-family="sans-serif" font-size="13" lengthAdjust="spacing" textLength="74" x="492.5" y="282.0566">owns list of</text><path d="M656.0232,407.5382 C667.2048,411.9001 674,418.2168 674,426.4883 C674,434.7598 667.2048,441.0765 656.0232,445.4384 " fill="none" style="stroke:#181818;stroke-width:1.0;"/><polygon fill="none" points="656.0232,407.5382,660.1593,413.4452,667.2027,411.8993,663.0667,405.9922,656.0232,407.5382" style="stroke:#181818;stroke-width:1.0;"/><path d="M656.0158,426.4883 C687.1518,426.4883 719.6278,426.4883 750.4596,426.4883 " fill="none" style="stroke:#181818;stroke-width:1.0;"/><polygon fill="#181818" points="656.0158,426.4883,662.0158,430.4883,668.0158,426.4883,662.0158,422.4883,656.0158,426.4883" style="stroke:#181818;stroke-width:1.0;"/><text fill="#000000" font-family="sans-serif" font-size="13" lengthAdjust="spacing" textLength="57" x="674.75" y="420.0566">accounts</text><path d="M656.188,446.3995 C679.5251,447.5153 703.2336,447.7371 725.75,446.4883 C733.7445,446.0449 741.9298,445.4914 750.1887,444.8541 " fill="none" style="stroke:#181818;stroke-width:1.0;"/><polygon fill="#181818" points="656.188,446.3995,661.9902,450.6815,668.1743,446.9726,662.3722,442.6906,656.188,446.3995" style="stroke:#181818;stroke-width:1.0;"/><text fill="#000000" font-family="sans-serif" font-size="13" lengthAdjust="spacing" textLength="43" x="681.75" y="443.0566">tokens</text><path d="M326.5,618.6916 C326.5,629.6566 326.5,644.394 326.5,655.3451 " fill="none" style="stroke:#181818;stroke-width:1.0;"/><polygon fill="#FFFFFF" points="326.5,618.6916,320.5,634.6916,332.5,634.6916,326.5,618.6916" style="stroke:#181818;stroke-width:1.0;"/><path d="M375.5587,549.7536 C362.0154,564.0357 349.9193,576.7915 341.1268,586.0637 " fill="none" style="stroke:#181818;stroke-width:1.0;"/><polygon fill="#FFFFFF" points="375.5587,549.7536,360.1955,557.2351,368.903,565.4922,375.5587,549.7536" style="stroke:#181818;stroke-width:1.0;"/><path d="M530.8498,549.7536 C535.4463,564.0357 539.5516,576.7915 542.5358,586.0637 " fill="none" style="stroke:#181818;stroke-width:1.0;"/><polygon fill="#FFFFFF" points="530.8498,549.7536,530.0401,566.8225,541.4631,563.1461,530.8498,549.7536" style="stroke:#181818;stroke-width:1.0;"/><path d="M181.3355,426.4883 C224.1434,426.4883 277.0563,426.4883 326.9823,426.4883 " fill="none" style="stroke:#181818;stroke-width:1.0;"/><polygon fill="none" points="326.9823,426.4883,320.9823,422.4883,314.9823,426.4883,320.9823,430.4883,326.9823,426.4883" style="stroke:#181818;stroke-width:1.0;"/><text fill="#000000" font-family="sans-serif" font-size="13" lengthAdjust="spacing" textLength="27" x="191" y="405.0566">gets</text><text fill="#000000" font-family="sans-serif" font-size="13" font-style="italic" lengthAdjust="spacing" textLength="95" x="222" y="405.0566">strongly-typed</text><text fill="#000000" font-family="sans-serif" font-size="13" lengthAdjust="spacing" textLength="62" x="223" y="420.3672">values for</text><path d="M217.0401,180.9883 C249.9358,180.9883 287.2068,180.9883 323.4387,180.9883 " fill="none" style="stroke:#181818;stroke-width:1.0;"/><polygon fill="none" points="323.4387,180.9883,317.4387,176.9883,311.4387,180.9883,317.4387,184.9883,323.4387,180.9883" style="stroke:#181818;stroke-width:1.0;"/><text fill="#000000" font-family="sans-serif" font-size="13" lengthAdjust="spacing" textLength="87" x="226.75" y="159.5566">gets database</text><text fill="#000000" font-family="sans-serif" font-size="13" lengthAdjust="spacing" textLength="62" x="239.25" y="174.8672">values for</text><!--SRC=[ZLNVRzem47xFN-5rBs6G8kqnGfLOIJj41nM4JfCcLSOvGePZHxQp2MtxttUs0qqRElM9k-ExxplV3tXNAPgNb71waBKXkWH31GrCOJYGbQ5i3vdzD42sKX4mkqVGfYWnS4ir2HcdMfEieBcYPI_O5HaGA2jp82MK6r0w243K9NcWl0RFypiWP3f_6DzD9sZD5-dZjoHzl4dIwy-9ZTmlarKoJz7wCbsjflDRjDRtat7glfqaTucr_WQ1rqw4KGT7IlhQ2ZZhfzL3a92eQ6H5vDOZOryA2IyOPJiWl11mqICka_I9pskerrL63TrmMC8M50W6rpPdDBjoUdqldOC9PpthrnOFMJWRB3O_W1aNp823WGR19EMW6TmeMOQlq3lWjk2ynOElfHjj56M6M50XSjVC6-owgsSq2iS3JNafHU_Ab_U-eaXg7CIwb35P2-Cqh6_a7iJHwtTOmxf2GQ2bymRNjYENbvUkEdposBE5pjSlVF_cPo5CIQtWAQ7bUNWhu1kfRPScyfVmTPnurjKfW7qfX06rfGm8we7MKercWuTcGelA559GFiA0dTCU3aTzQm_SkDjZSe1dhBSA7v6bgZQxjmgSThCveAUcwkFkHDf-PHcwcF2CfEiyyleTZlswoaWL-Sv4hUiANbcgECRgo8UehY9_1q7G5NQyR8-mgBjb92Ps57Wmsk0r1Hr07BSM3clhKfpBQMyb2hzsSwZU8FKvbgTT_Z-7m-bWkUW-R_G7Nxty-eQY6-ZYpT29hOPg-FIYuMVmCkAmnOaUvuuru-0q6GvnvwN8-I4oXmgouV2xSCkhxU_osLbsOoVsCmjs5CgQMf_H1tfV29mkBKcEgTLKx40L-4-1z_7n7m00]--></g></svg>
