<?xml version="1.0" encoding="us-ascii" standalone="no"?><svg xmlns="http://www.w3.org/2000/svg" xmlns:xlink="http://www.w3.org/1999/xlink" contentStyleType="text/css" height="691px" preserveAspectRatio="none" style="width:1154px;height:691px;background:#FFFFFF;" version="1.1" viewBox="0 0 1154 691" width="1154px" zoomAndPan="magnify"><defs/><g><text fill="#000000" font-family="sans-serif" font-size="14" font-weight="bold" lengthAdjust="spacing" textLength="419" x="363.5" y="22.9951">Stacked State for eth_estimateGas (class diagram)</text><!--class ValueState--><g id="elem_ValueState"><rect codeLine="5" fill="#F1F1F1" height="137.7813" id="ValueState" rx="2.5" ry="2.5" style="stroke:#181818;stroke-width:0.5;" width="149" x="998" y="111.2969"/><ellipse cx="1030.1" cy="127.2969" fill="#EB937F" rx="11" ry="11" style="stroke:#181818;stroke-width:1.0;"/><path d="M1028.8969,128.1719 L1030.35,128.1719 L1030.35,128.2813 C1030.35,128.6875 1030.3813,128.8438 1030.4594,129 C1030.6156,129.25 1030.8969,129.4063 1031.1938,129.4063 C1031.4438,129.4063 1031.7094,129.2656 1031.8656,129.0469 C1031.9906,128.8906 1032.0219,128.7344 1032.0219,128.2813 L1032.0219,126.3594 C1032.0219,126.2031 1032.0219,126.1563 1032.0063,126 C1031.9438,125.5313 1031.6313,125.2188 1031.1781,125.2188 C1030.9281,125.2188 1030.6625,125.3594 1030.4906,125.5781 C1030.3813,125.75 1030.35,125.9063 1030.35,126.3594 L1030.35,126.4844 L1028.8969,126.4844 L1028.8969,124.0781 L1032.8813,124.0781 L1032.8813,124.9375 C1032.8813,125.3438 1032.9125,125.5156 1032.9906,125.6719 C1033.1625,125.9219 1033.4438,126.0781 1033.725,126.0781 C1033.9906,126.0781 1034.2563,125.9375 1034.4281,125.7188 C1034.5375,125.5469 1034.5688,125.4063 1034.5688,124.9375 L1034.5688,122.3906 L1026.9438,122.3906 C1026.5063,122.3906 1026.3813,122.4063 1026.225,122.5 C1025.975,122.6563 1025.8188,122.9531 1025.8188,123.2344 C1025.8188,123.5156 1025.9594,123.7656 1026.1781,123.9375 C1026.3344,124.0469 1026.5219,124.0781 1026.9438,124.0781 L1027.1938,124.0781 L1027.1938,130.5938 L1026.9438,130.5938 C1026.5375,130.5938 1026.3813,130.6094 1026.225,130.7188 C1025.975,130.8906 1025.8188,131.1563 1025.8188,131.4531 C1025.8188,131.7188 1025.9594,131.9688 1026.1781,132.125 C1026.3188,132.25 1026.5531,132.2969 1026.9438,132.2969 L1034.9438,132.2969 L1034.9438,129.7188 C1034.9438,129.2813 1034.9125,129.1406 1034.8344,128.9844 C1034.6625,128.7344 1034.3813,128.5781 1034.1,128.5781 C1033.8344,128.5781 1033.5688,128.6875 1033.3969,128.9375 C1033.2875,129.0938 1033.2563,129.2344 1033.2563,129.7188 L1033.2563,130.5938 L1028.8969,130.5938 L1028.8969,128.1719 Z " fill="#000000"/><text fill="#000000" font-family="sans-serif" font-size="14" lengthAdjust="spacing" textLength="79" x="1047.9" y="132.1436">ValueState</text><line style="stroke:#181818;stroke-width:0.5;" x1="999" x2="1146" y1="143.2969" y2="143.2969"/><text fill="#000000" font-family="sans-serif" font-size="14" lengthAdjust="spacing" textLength="57" x="1004" y="160.292">INVALID</text><text fill="#000000" font-family="sans-serif" font-size="14" lengthAdjust="spacing" textLength="137" x="1004" y="176.5889">NOT_YET_FETCHED</text><text fill="#000000" font-family="sans-serif" font-size="14" lengthAdjust="spacing" textLength="65" x="1004" y="192.8857">PRESENT</text><text fill="#000000" font-family="sans-serif" font-size="14" lengthAdjust="spacing" textLength="59" x="1004" y="209.1826">MISSING</text><text fill="#000000" font-family="sans-serif" font-size="14" lengthAdjust="spacing" textLength="68" x="1004" y="225.4795">UPDATED</text><text fill="#000000" font-family="sans-serif" font-size="14" lengthAdjust="spacing" textLength="66" x="1004" y="241.7764">DELETED</text></g><!--class Entry--><g id="elem_Entry"><rect codeLine="14" fill="#F1F1F1" height="72.5938" id="Entry" rx="2.5" ry="2.5" style="stroke:#181818;stroke-width:0.5;" width="71" x="909" y="143.7969"/><ellipse cx="924" cy="159.7969" fill="#ADD1B2" rx="11" ry="11" style="stroke:#181818;stroke-width:1.0;"/><path d="M926.3438,155.4688 C925.4063,155.0313 924.8125,154.8906 923.9375,154.8906 C921.3125,154.8906 919.3125,156.9688 919.3125,159.6875 L919.3125,160.8125 C919.3125,163.3906 921.4219,165.2813 924.3125,165.2813 C925.5313,165.2813 926.6875,164.9844 927.4375,164.4375 C928.0156,164.0313 928.3438,163.5781 928.3438,163.1875 C928.3438,162.7344 927.9531,162.3438 927.4844,162.3438 C927.2656,162.3438 927.0625,162.4219 926.875,162.6094 C926.4219,163.0938 926.4219,163.0938 926.2344,163.1875 C925.8125,163.4531 925.125,163.5781 924.3594,163.5781 C922.3125,163.5781 921.0156,162.4844 921.0156,160.7813 L921.0156,159.6875 C921.0156,157.9063 922.2656,156.5938 924,156.5938 C924.5781,156.5938 925.1875,156.75 925.6563,157 C926.1406,157.2813 926.3125,157.5 926.4063,157.9063 C926.4688,158.3125 926.5,158.4375 926.6406,158.5625 C926.7813,158.7031 927.0156,158.8125 927.2344,158.8125 C927.5,158.8125 927.7656,158.6719 927.9375,158.4531 C928.0469,158.2969 928.0781,158.1094 928.0781,157.6875 L928.0781,156.2656 C928.0781,155.8281 928.0625,155.7031 927.9688,155.5469 C927.8125,155.2813 927.5313,155.1406 927.2344,155.1406 C926.9375,155.1406 926.7344,155.2344 926.5156,155.5469 L926.3438,155.4688 Z " fill="#000000"/><text fill="#000000" font-family="sans-serif" font-size="14" lengthAdjust="spacing" textLength="39" x="938" y="164.6436">Entry</text><line style="stroke:#181818;stroke-width:0.5;" x1="910" x2="979" y1="175.7969" y2="175.7969"/><ellipse cx="920" cy="189.4453" fill="none" rx="3" ry="3" style="stroke:#038048;stroke-width:1.0;"/><text fill="#000000" font-family="sans-serif" font-size="14" lengthAdjust="spacing" textLength="38" x="929" y="192.792">state</text><ellipse cx="920" cy="205.7422" fill="none" rx="3" ry="3" style="stroke:#038048;stroke-width:1.0;"/><text fill="#000000" font-family="sans-serif" font-size="14" lengthAdjust="spacing" textLength="37" x="929" y="209.0889">value</text></g><g id="elem_GMN4"><path d="M827,49.2969 L827,74.4297 A0,0 0 0 0 827,74.4297 L940.5,74.4297 L944.5,143.6158 L948.5,74.4297 L1062,74.4297 A0,0 0 0 0 1062,74.4297 L1062,59.2969 L1052,49.2969 L827,49.2969 A0,0 0 0 0 827,49.2969 " fill="#FEFFDD" style="stroke:#181818;stroke-width:0.5;"/><path d="M1052,49.2969 L1052,59.2969 L1062,59.2969 L1052,49.2969 " fill="#FEFFDD" style="stroke:#181818;stroke-width:0.5;"/><text fill="#000000" font-family="sans-serif" font-size="13" lengthAdjust="spacing" textLength="214" x="833" y="66.3638">Value ("cache line") state + value</text></g><!--class UpdatableReferenceCache--><g id="elem_UpdatableReferenceCache"><rect codeLine="20" fill="#F1F1F1" height="121.4844" id="UpdatableReferenceCache" rx="2.5" ry="2.5" style="stroke:#181818;stroke-width:0.5;" width="328" x="780.5" y="363.7969"/><ellipse cx="837.75" cy="379.7969" fill="#ADD1B2" rx="11" ry="11" style="stroke:#181818;stroke-width:1.0;"/><path d="M840.0938,375.4688 C839.1563,375.0313 838.5625,374.8906 837.6875,374.8906 C835.0625,374.8906 833.0625,376.9688 833.0625,379.6875 L833.0625,380.8125 C833.0625,383.3906 835.1719,385.2813 838.0625,385.2813 C839.2813,385.2813 840.4375,384.9844 841.1875,384.4375 C841.7656,384.0313 842.0938,383.5781 842.0938,383.1875 C842.0938,382.7344 841.7031,382.3438 841.2344,382.3438 C841.0156,382.3438 840.8125,382.4219 840.625,382.6094 C840.1719,383.0938 840.1719,383.0938 839.9844,383.1875 C839.5625,383.4531 838.875,383.5781 838.1094,383.5781 C836.0625,383.5781 834.7656,382.4844 834.7656,380.7813 L834.7656,379.6875 C834.7656,377.9063 836.0156,376.5938 837.75,376.5938 C838.3281,376.5938 838.9375,376.75 839.4063,377 C839.8906,377.2813 840.0625,377.5 840.1563,377.9063 C840.2188,378.3125 840.25,378.4375 840.3906,378.5625 C840.5313,378.7031 840.7656,378.8125 840.9844,378.8125 C841.25,378.8125 841.5156,378.6719 841.6875,378.4531 C841.7969,378.2969 841.8281,378.1094 841.8281,377.6875 L841.8281,376.2656 C841.8281,375.8281 841.8125,375.7031 841.7188,375.5469 C841.5625,375.2813 841.2813,375.1406 840.9844,375.1406 C840.6875,375.1406 840.4844,375.2344 840.2656,375.5469 L840.0938,375.4688 Z " fill="#000000"/><text fill="#000000" font-family="sans-serif" font-size="14" lengthAdjust="spacing" textLength="193" x="858.25" y="384.6436">UpdatableReferenceCache</text><rect fill="#FFFFFF" height="15.9688" style="stroke:#181818;stroke-width:1.0;stroke-dasharray:2.0,2.0;" width="10" x="1101.5" y="360.7969"/><text fill="#000000" font-family="sans-serif" font-size="12" font-style="italic" lengthAdjust="spacing" textLength="8" x="1102.5" y="372.9355">K</text><line style="stroke:#181818;stroke-width:0.5;" x1="781.5" x2="1107.5" y1="395.7969" y2="395.7969"/><ellipse cx="791.5" cy="409.4453" fill="#84BE84" rx="3" ry="3" style="stroke:#038048;stroke-width:1.0;"/><text fill="#000000" font-family="sans-serif" font-size="14" lengthAdjust="spacing" textLength="88" x="800.5" y="412.792">Entry get(K)</text><ellipse cx="791.5" cy="425.7422" fill="#84BE84" rx="3" ry="3" style="stroke:#038048;stroke-width:1.0;"/><text fill="#000000" font-family="sans-serif" font-size="14" lengthAdjust="spacing" textLength="133" x="800.5" y="429.0889">updated(K,Object)</text><ellipse cx="791.5" cy="442.0391" fill="#84BE84" rx="3" ry="3" style="stroke:#038048;stroke-width:1.0;"/><text fill="#000000" font-family="sans-serif" font-size="14" lengthAdjust="spacing" textLength="67" x="800.5" y="445.3857">delete(K)</text><ellipse cx="791.5" cy="458.3359" fill="#84BE84" rx="3" ry="3" style="stroke:#038048;stroke-width:1.0;"/><text fill="#000000" font-family="sans-serif" font-size="14" lengthAdjust="spacing" textLength="302" x="800.5" y="461.6826">coalesceFrom(UpdatableReferenceCache)</text><ellipse cx="791.5" cy="474.6328" fill="#84BE84" rx="3" ry="3" style="stroke:#038048;stroke-width:1.0;"/><text fill="#000000" font-family="sans-serif" font-size="14" lengthAdjust="spacing" textLength="91" x="800.5" y="477.9795">fill(K,Object)</text></g><!--class CachingStateFrame--><g id="elem_CachingStateFrame"><rect codeLine="28" fill="#F1F1F1" height="243.5625" id="CachingStateFrame" rx="2.5" ry="2.5" style="stroke:#181818;stroke-width:0.5;" width="347" x="338" y="302.2969"/><ellipse cx="430.75" cy="318.2969" fill="#FA8072" rx="11" ry="11" style="stroke:#181818;stroke-width:1.0;"/><path d="M432.8281,320.1094 L433.2188,321.0938 L432.8281,321.0938 C432.375,321.0938 432.2656,321.1094 432.1094,321.2188 C431.8594,321.375 431.7031,321.6563 431.7031,321.9531 C431.7031,322.2188 431.8438,322.4688 432.0625,322.625 C432.2031,322.75 432.4063,322.7969 432.8281,322.7969 L435.1875,322.7969 C435.5469,322.7969 435.7656,322.7656 435.9063,322.6719 C436.1563,322.5313 436.3125,322.2344 436.3125,321.9531 C436.3125,321.6719 436.1719,321.4219 435.9531,321.2656 C435.7813,321.125 435.625,321.0938 435.1563,321.0938 L431.7656,312.8906 L428.0938,312.8906 C427.6406,312.8906 427.5156,312.9063 427.3594,313 C427.1094,313.1719 426.9531,313.4531 426.9531,313.7344 C426.9531,314.0156 427.0938,314.2656 427.3125,314.4375 C427.4844,314.5469 427.6563,314.5781 428.0938,314.5781 L429.1719,314.5781 L426.5313,321.0938 C426.1094,321.0938 425.9531,321.1094 425.7969,321.2188 C425.5469,321.375 425.3906,321.6563 425.3906,321.9531 C425.3906,322.5156 425.7656,322.7969 426.5156,322.7969 L428.7813,322.7969 C429.1406,322.7969 429.3594,322.7656 429.4844,322.6719 C429.75,322.5313 429.8906,322.2344 429.8906,321.9531 C429.8906,321.6719 429.7656,321.4219 429.5469,321.25 C429.375,321.125 429.2344,321.0938 428.7813,321.0938 L428.3906,321.0938 L428.7813,320.1094 L432.8281,320.1094 Z M432.125,318.4063 L429.4531,318.4063 L430.7969,315.1406 L432.125,318.4063 Z " fill="#000000"/><text fill="#000000" font-family="sans-serif" font-size="14" font-style="italic" lengthAdjust="spacing" textLength="141" x="451.25" y="323.1436">CachingStateFrame</text><rect fill="#FFFFFF" height="15.9688" style="stroke:#181818;stroke-width:1.0;stroke-dasharray:2.0,2.0;" width="10" x="678" y="299.2969"/><text fill="#000000" font-family="sans-serif" font-size="12" font-style="italic" lengthAdjust="spacing" textLength="8" x="679" y="311.4355">K</text><line style="stroke:#181818;stroke-width:0.5;" x1="339" x2="684" y1="334.2969" y2="334.2969"/><polygon fill="none" points="349,342.9453,353,346.9453,349,350.9453,345,346.9453" style="stroke:#B38D22;stroke-width:1.0;"/><text fill="#000000" font-family="sans-serif" font-size="14" lengthAdjust="spacing" textLength="94" x="358" y="351.292">parentFrame</text><polygon fill="none" points="349,359.2422,353,363.2422,349,367.2422,345,363.2422" style="stroke:#B38D22;stroke-width:1.0;"/><text fill="#000000" font-family="sans-serif" font-size="14" lengthAdjust="spacing" textLength="101" x="358" y="367.5889">accountCache</text><polygon fill="none" points="349,375.5391,353,379.5391,349,383.5391,345,379.5391" style="stroke:#B38D22;stroke-width:1.0;"/><text fill="#000000" font-family="sans-serif" font-size="14" lengthAdjust="spacing" textLength="87" x="358" y="383.8857">tokenCache</text><line style="stroke:#181818;stroke-width:0.5;" x1="339" x2="684" y1="391.1875" y2="391.1875"/><ellipse cx="349" cy="404.8359" fill="#84BE84" rx="3" ry="3" style="stroke:#038048;stroke-width:1.0;"/><text fill="#000000" font-family="sans-serif" font-size="14" lengthAdjust="spacing" textLength="321" x="358" y="408.1826">CachingStateFrame(upstreamFrame,Class...)</text><ellipse cx="349" cy="421.1328" fill="#84BE84" rx="3" ry="3" style="stroke:#038048;stroke-width:1.0;"/><text fill="#000000" font-family="sans-serif" font-size="14" lengthAdjust="spacing" textLength="94" x="358" y="424.4795">getAccount()</text><ellipse cx="349" cy="437.4297" fill="#84BE84" rx="3" ry="3" style="stroke:#038048;stroke-width:1.0;"/><text fill="#000000" font-family="sans-serif" font-size="14" lengthAdjust="spacing" textLength="92" x="358" y="440.7764">setAccount()</text><ellipse cx="349" cy="453.7266" fill="#84BE84" rx="3" ry="3" style="stroke:#038048;stroke-width:1.0;"/><text fill="#000000" font-family="sans-serif" font-size="14" lengthAdjust="spacing" textLength="116" x="358" y="457.0732">deleteAccount()</text><ellipse cx="349" cy="470.0234" fill="#84BE84" rx="3" ry="3" style="stroke:#038048;stroke-width:1.0;"/><text fill="#000000" font-family="sans-serif" font-size="14" lengthAdjust="spacing" textLength="80" x="358" y="473.3701">getToken()</text><ellipse cx="349" cy="486.3203" fill="#84BE84" rx="3" ry="3" style="stroke:#038048;stroke-width:1.0;"/><text fill="#000000" font-family="sans-serif" font-size="14" lengthAdjust="spacing" textLength="78" x="358" y="489.667">setToken()</text><ellipse cx="349" cy="502.6172" fill="#84BE84" rx="3" ry="3" style="stroke:#038048;stroke-width:1.0;"/><text fill="#000000" font-family="sans-serif" font-size="14" lengthAdjust="spacing" textLength="102" x="358" y="505.9639">deleteToken()</text><ellipse cx="349" cy="518.9141" fill="#84BE84" rx="3" ry="3" style="stroke:#038048;stroke-width:1.0;"/><text fill="#000000" font-family="sans-serif" font-size="14" lengthAdjust="spacing" textLength="196" x="358" y="522.2607">updatesFromDownstream()</text><ellipse cx="349" cy="535.2109" fill="#84BE84" rx="3" ry="3" style="stroke:#038048;stroke-width:1.0;"/><text fill="#000000" font-family="sans-serif" font-size="14" lengthAdjust="spacing" textLength="105" x="358" y="538.5576">getUpstream()</text></g><!--class Accessor--><g id="elem_Accessor"><rect codeLine="43" fill="#F1F1F1" height="88.8906" id="Accessor" rx="2.5" ry="2.5" style="stroke:#181818;stroke-width:0.5;" width="185" x="6" y="379.7969"/><ellipse cx="50.25" cy="395.7969" fill="#B4A7E5" rx="11" ry="11" style="stroke:#181818;stroke-width:1.0;"/><path d="M51.2031,392.5781 L52.9219,392.5781 C53.3125,392.5781 53.5,392.5469 53.625,392.4688 C53.8906,392.3125 54.0313,392.0313 54.0313,391.7344 C54.0313,391.4688 53.9219,391.2031 53.6875,391.0313 C53.5156,390.9219 53.375,390.8906 52.9219,390.8906 L47.7813,390.8906 C47.3438,390.8906 47.2188,390.9063 47.0625,391 C46.8125,391.1563 46.6563,391.4531 46.6563,391.7344 C46.6563,392.0156 46.7969,392.2656 47.0156,392.4375 C47.1719,392.5469 47.3594,392.5781 47.7813,392.5781 L49.5,392.5781 L49.5,399.0938 L47.7813,399.0938 C47.3438,399.0938 47.2188,399.1094 47.0625,399.2188 C46.8125,399.375 46.6563,399.6563 46.6563,399.9531 C46.6563,400.2031 46.7969,400.4688 47.0156,400.625 C47.1719,400.75 47.375,400.7969 47.7813,400.7969 L52.9219,400.7969 C53.6719,400.7969 54.0313,400.5156 54.0313,399.9531 C54.0313,399.6719 53.9219,399.4219 53.6875,399.25 C53.5156,399.125 53.375,399.0938 52.9219,399.0938 L51.2031,399.0938 L51.2031,392.5781 Z " fill="#000000"/><text fill="#000000" font-family="sans-serif" font-size="14" font-style="italic" lengthAdjust="spacing" textLength="64" x="70.75" y="400.6436">Accessor</text><rect fill="#FFFFFF" height="15.9688" style="stroke:#181818;stroke-width:1.0;stroke-dasharray:2.0,2.0;" width="22" x="172" y="376.7969"/><text fill="#000000" font-family="sans-serif" font-size="12" font-style="italic" lengthAdjust="spacing" textLength="20" x="173" y="388.9355">K,V</text><line style="stroke:#181818;stroke-width:0.5;" x1="7" x2="190" y1="411.7969" y2="411.7969"/><ellipse cx="17" cy="425.4453" fill="#84BE84" rx="3" ry="3" style="stroke:#038048;stroke-width:1.0;"/><text fill="#000000" font-family="sans-serif" font-size="14" lengthAdjust="spacing" textLength="159" x="26" y="428.792">Optional&lt;V&gt; get(key)</text><ellipse cx="17" cy="441.7422" fill="#84BE84" rx="3" ry="3" style="stroke:#038048;stroke-width:1.0;"/><text fill="#000000" font-family="sans-serif" font-size="14" lengthAdjust="spacing" textLength="100" x="26" y="445.0889">set(key,value)</text><ellipse cx="17" cy="458.0391" fill="#84BE84" rx="3" ry="3" style="stroke:#038048;stroke-width:1.0;"/><text fill="#000000" font-family="sans-serif" font-size="14" lengthAdjust="spacing" textLength="83" x="26" y="461.3857">delete(key)</text></g><!--class DatabaseAccessor--><g id="elem_DatabaseAccessor"><rect codeLine="49" fill="#F1F1F1" height="56.2969" id="DatabaseAccessor" rx="2.5" ry="2.5" style="stroke:#181818;stroke-width:0.5;" width="188" x="44.5" y="152.2969"/><ellipse cx="59.5" cy="168.2969" fill="#B4A7E5" rx="11" ry="11" style="stroke:#181818;stroke-width:1.0;"/><path d="M60.4531,165.0781 L62.1719,165.0781 C62.5625,165.0781 62.75,165.0469 62.875,164.9688 C63.1406,164.8125 63.2813,164.5313 63.2813,164.2344 C63.2813,163.9688 63.1719,163.7031 62.9375,163.5313 C62.7656,163.4219 62.625,163.3906 62.1719,163.3906 L57.0313,163.3906 C56.5938,163.3906 56.4688,163.4063 56.3125,163.5 C56.0625,163.6563 55.9063,163.9531 55.9063,164.2344 C55.9063,164.5156 56.0469,164.7656 56.2656,164.9375 C56.4219,165.0469 56.6094,165.0781 57.0313,165.0781 L58.75,165.0781 L58.75,171.5938 L57.0313,171.5938 C56.5938,171.5938 56.4688,171.6094 56.3125,171.7188 C56.0625,171.875 55.9063,172.1563 55.9063,172.4531 C55.9063,172.7031 56.0469,172.9688 56.2656,173.125 C56.4219,173.25 56.625,173.2969 57.0313,173.2969 L62.1719,173.2969 C62.9219,173.2969 63.2813,173.0156 63.2813,172.4531 C63.2813,172.1719 63.1719,171.9219 62.9375,171.75 C62.7656,171.625 62.625,171.5938 62.1719,171.5938 L60.4531,171.5938 L60.4531,165.0781 Z " fill="#000000"/><text fill="#000000" font-family="sans-serif" font-size="14" font-style="italic" lengthAdjust="spacing" textLength="132" x="73.5" y="173.1436">DatabaseAccessor</text><rect fill="#FFFFFF" height="15.9688" style="stroke:#181818;stroke-width:1.0;stroke-dasharray:2.0,2.0;" width="22" x="213.5" y="149.2969"/><text fill="#000000" font-family="sans-serif" font-size="12" font-style="italic" lengthAdjust="spacing" textLength="20" x="214.5" y="161.4355">K,V</text><line style="stroke:#181818;stroke-width:0.5;" x1="45.5" x2="231.5" y1="184.2969" y2="184.2969"/><ellipse cx="55.5" cy="197.9453" fill="#84BE84" rx="3" ry="3" style="stroke:#038048;stroke-width:1.0;"/><text fill="#000000" font-family="sans-serif" font-size="14" lengthAdjust="spacing" textLength="159" x="64.5" y="201.292">Optional&lt;V&gt; get(key)</text></g><!--class StackedStateFrames--><g id="elem_StackedStateFrames"><rect codeLine="53" fill="#F1F1F1" height="80.5938" id="StackedStateFrames" rx="2.5" ry="2.5" style="stroke:#181818;stroke-width:0.5;" width="334" x="344.5" y="139.7969"/><ellipse cx="425.75" cy="155.7969" fill="#ADD1B2" rx="11" ry="11" style="stroke:#181818;stroke-width:1.0;"/><path d="M428.0938,151.4688 C427.1563,151.0313 426.5625,150.8906 425.6875,150.8906 C423.0625,150.8906 421.0625,152.9688 421.0625,155.6875 L421.0625,156.8125 C421.0625,159.3906 423.1719,161.2813 426.0625,161.2813 C427.2813,161.2813 428.4375,160.9844 429.1875,160.4375 C429.7656,160.0313 430.0938,159.5781 430.0938,159.1875 C430.0938,158.7344 429.7031,158.3438 429.2344,158.3438 C429.0156,158.3438 428.8125,158.4219 428.625,158.6094 C428.1719,159.0938 428.1719,159.0938 427.9844,159.1875 C427.5625,159.4531 426.875,159.5781 426.1094,159.5781 C424.0625,159.5781 422.7656,158.4844 422.7656,156.7813 L422.7656,155.6875 C422.7656,153.9063 424.0156,152.5938 425.75,152.5938 C426.3281,152.5938 426.9375,152.75 427.4063,153 C427.8906,153.2813 428.0625,153.5 428.1563,153.9063 C428.2188,154.3125 428.25,154.4375 428.3906,154.5625 C428.5313,154.7031 428.7656,154.8125 428.9844,154.8125 C429.25,154.8125 429.5156,154.6719 429.6875,154.4531 C429.7969,154.2969 429.8281,154.1094 429.8281,153.6875 L429.8281,152.2656 C429.8281,151.8281 429.8125,151.7031 429.7188,151.5469 C429.5625,151.2813 429.2813,151.1406 428.9844,151.1406 C428.6875,151.1406 428.4844,151.2344 428.2656,151.5469 L428.0938,151.4688 Z " fill="#000000"/><text fill="#000000" font-family="sans-serif" font-size="14" lengthAdjust="spacing" textLength="151" x="446.25" y="160.6436">StackedStateFrames</text><rect fill="#FFFFFF" height="15.9688" style="stroke:#181818;stroke-width:1.0;stroke-dasharray:2.0,2.0;" width="10" x="671.5" y="136.7969"/><text fill="#000000" font-family="sans-serif" font-size="12" font-style="italic" lengthAdjust="spacing" textLength="8" x="672.5" y="148.9355">K</text><line style="stroke:#181818;stroke-width:0.5;" x1="345.5" x2="677.5" y1="171.7969" y2="171.7969"/><rect fill="none" height="6" style="stroke:#C82930;stroke-width:1.0;" width="6" x="352.5" y="182.4453"/><text fill="#000000" font-family="sans-serif" font-size="14" lengthAdjust="spacing" textLength="39" x="364.5" y="188.792">stack</text><line style="stroke:#181818;stroke-width:0.5;" x1="345.5" x2="677.5" y1="196.0938" y2="196.0938"/><ellipse cx="355.5" cy="209.7422" fill="#84BE84" rx="3" ry="3" style="stroke:#038048;stroke-width:1.0;"/><text fill="#000000" font-family="sans-serif" font-size="14" lengthAdjust="spacing" textLength="308" x="364.5" y="213.0889">StackedStateFrames(DatabaseAccessor...)</text></g><!--class ROCachingStateFrame--><g id="elem_ROCachingStateFrame"><rect fill="#F1F1F1" height="32" id="ROCachingStateFrame" rx="2.5" ry="2.5" style="stroke:#181818;stroke-width:0.5;" width="195" x="238" y="583.2969"/><ellipse cx="253" cy="599.2969" fill="#ADD1B2" rx="11" ry="11" style="stroke:#181818;stroke-width:1.0;"/><path d="M255.3438,594.9688 C254.4063,594.5313 253.8125,594.3906 252.9375,594.3906 C250.3125,594.3906 248.3125,596.4688 248.3125,599.1875 L248.3125,600.3125 C248.3125,602.8906 250.4219,604.7813 253.3125,604.7813 C254.5313,604.7813 255.6875,604.4844 256.4375,603.9375 C257.0156,603.5313 257.3438,603.0781 257.3438,602.6875 C257.3438,602.2344 256.9531,601.8438 256.4844,601.8438 C256.2656,601.8438 256.0625,601.9219 255.875,602.1094 C255.4219,602.5938 255.4219,602.5938 255.2344,602.6875 C254.8125,602.9531 254.125,603.0781 253.3594,603.0781 C251.3125,603.0781 250.0156,601.9844 250.0156,600.2813 L250.0156,599.1875 C250.0156,597.4063 251.2656,596.0938 253,596.0938 C253.5781,596.0938 254.1875,596.25 254.6563,596.5 C255.1406,596.7813 255.3125,597 255.4063,597.4063 C255.4688,597.8125 255.5,597.9375 255.6406,598.0625 C255.7813,598.2031 256.0156,598.3125 256.2344,598.3125 C256.5,598.3125 256.7656,598.1719 256.9375,597.9531 C257.0469,597.7969 257.0781,597.6094 257.0781,597.1875 L257.0781,595.7656 C257.0781,595.3281 257.0625,595.2031 256.9688,595.0469 C256.8125,594.7813 256.5313,594.6406 256.2344,594.6406 C255.9375,594.6406 255.7344,594.7344 255.5156,595.0469 L255.3438,594.9688 Z " fill="#000000"/><text fill="#000000" font-family="sans-serif" font-size="14" lengthAdjust="spacing" textLength="163" x="267" y="604.1436">ROCachingStateFrame</text></g><!--class RWCachingStateFrame--><g id="elem_RWCachingStateFrame"><rect fill="#F1F1F1" height="32" id="RWCachingStateFrame" rx="2.5" ry="2.5" style="stroke:#181818;stroke-width:0.5;" width="198" x="236.5" y="652.2969"/><ellipse cx="251.5" cy="668.2969" fill="#ADD1B2" rx="11" ry="11" style="stroke:#181818;stroke-width:1.0;"/><path d="M253.8438,663.9688 C252.9063,663.5313 252.3125,663.3906 251.4375,663.3906 C248.8125,663.3906 246.8125,665.4688 246.8125,668.1875 L246.8125,669.3125 C246.8125,671.8906 248.9219,673.7813 251.8125,673.7813 C253.0313,673.7813 254.1875,673.4844 254.9375,672.9375 C255.5156,672.5313 255.8438,672.0781 255.8438,671.6875 C255.8438,671.2344 255.4531,670.8438 254.9844,670.8438 C254.7656,670.8438 254.5625,670.9219 254.375,671.1094 C253.9219,671.5938 253.9219,671.5938 253.7344,671.6875 C253.3125,671.9531 252.625,672.0781 251.8594,672.0781 C249.8125,672.0781 248.5156,670.9844 248.5156,669.2813 L248.5156,668.1875 C248.5156,666.4063 249.7656,665.0938 251.5,665.0938 C252.0781,665.0938 252.6875,665.25 253.1563,665.5 C253.6406,665.7813 253.8125,666 253.9063,666.4063 C253.9688,666.8125 254,666.9375 254.1406,667.0625 C254.2813,667.2031 254.5156,667.3125 254.7344,667.3125 C255,667.3125 255.2656,667.1719 255.4375,666.9531 C255.5469,666.7969 255.5781,666.6094 255.5781,666.1875 L255.5781,664.7656 C255.5781,664.3281 255.5625,664.2031 255.4688,664.0469 C255.3125,663.7813 255.0313,663.6406 254.7344,663.6406 C254.4375,663.6406 254.2344,663.7344 254.0156,664.0469 L253.8438,663.9688 Z " fill="#000000"/><text fill="#000000" font-family="sans-serif" font-size="14" lengthAdjust="spacing" textLength="166" x="265.5" y="673.1436">RWCachingStateFrame</text></g><!--class DatabaseBackedStateFrame--><g id="elem_DatabaseBackedStateFrame"><rect fill="#F1F1F1" height="32" id="DatabaseBackedStateFrame" rx="2.5" ry="2.5" style="stroke:#181818;stroke-width:0.5;" width="238" x="451.5" y="583.2969"/><ellipse cx="466.5" cy="599.2969" fill="#ADD1B2" rx="11" ry="11" style="stroke:#181818;stroke-width:1.0;"/><path d="M468.8438,594.9688 C467.9063,594.5313 467.3125,594.3906 466.4375,594.3906 C463.8125,594.3906 461.8125,596.4688 461.8125,599.1875 L461.8125,600.3125 C461.8125,602.8906 463.9219,604.7813 466.8125,604.7813 C468.0313,604.7813 469.1875,604.4844 469.9375,603.9375 C470.5156,603.5313 470.8438,603.0781 470.8438,602.6875 C470.8438,602.2344 470.4531,601.8438 469.9844,601.8438 C469.7656,601.8438 469.5625,601.9219 469.375,602.1094 C468.9219,602.5938 468.9219,602.5938 468.7344,602.6875 C468.3125,602.9531 467.625,603.0781 466.8594,603.0781 C464.8125,603.0781 463.5156,601.9844 463.5156,600.2813 L463.5156,599.1875 C463.5156,597.4063 464.7656,596.0938 466.5,596.0938 C467.0781,596.0938 467.6875,596.25 468.1563,596.5 C468.6406,596.7813 468.8125,597 468.9063,597.4063 C468.9688,597.8125 469,597.9375 469.1406,598.0625 C469.2813,598.2031 469.5156,598.3125 469.7344,598.3125 C470,598.3125 470.2656,598.1719 470.4375,597.9531 C470.5469,597.7969 470.5781,597.6094 470.5781,597.1875 L470.5781,595.7656 C470.5781,595.3281 470.5625,595.2031 470.4688,595.0469 C470.3125,594.7813 470.0313,594.6406 469.7344,594.6406 C469.4375,594.6406 469.2344,594.7344 469.0156,595.0469 L468.8438,594.9688 Z " fill="#000000"/><text fill="#000000" font-family="sans-serif" font-size="14" lengthAdjust="spacing" textLength="206" x="480.5" y="604.1436">DatabaseBackedStateFrame</text></g><path d="M980.5,180.2969 C986.25,180.2969 992,180.2969 997.75,180.2969 " fill="none" style="stroke:#181818;stroke-width:1.0;"/><polygon fill="none" points="980.5,180.2969,986.5,184.2969,992.5,180.2969,986.5,176.2969,980.5,180.2969" style="stroke:#181818;stroke-width:1.0;"/><path d="M944.5,217.0048 C944.5,255.5276 944.5,317.5181 944.5,363.5009 " fill="none" style="stroke:#181818;stroke-width:1.0;"/><polygon fill="#181818" points="944.5,363.5009,948.5,357.5009,944.5,351.5009,940.5,357.5009,944.5,363.5009" style="stroke:#181818;stroke-width:1.0;"/><path d="M511.5,220.9873 C511.5,243.4476 511.5,272.8646 511.5,302.2827 " fill="none" style="stroke:#181818;stroke-width:1.0;"/><polygon fill="#181818" points="511.5,220.9873,507.5,226.9873,511.5,232.9873,515.5,226.9873,511.5,220.9873" style="stroke:#181818;stroke-width:1.0;"/><text fill="#000000" font-family="sans-serif" font-size="13" lengthAdjust="spacing" textLength="73" x="512.5" y="280.3638">owns list of</text><path d="M685.0009,405.6748 C696.2189,410.0231 703,416.2305 703,424.2969 C703,432.3633 696.2189,438.5706 685.0009,442.9189 " fill="none" style="stroke:#181818;stroke-width:1.0;"/><polygon fill="none" points="685.0009,405.6748,689.1496,411.5729,696.1897,410.0118,692.041,404.1137,685.0009,405.6748" style="stroke:#181818;stroke-width:1.0;"/><path d="M685.1227,424.2969 C716.5328,424.2969 749.1971,424.2969 780.3262,424.2969 " fill="none" style="stroke:#181818;stroke-width:1.0;"/><polygon fill="#181818" points="685.1227,424.2969,691.1227,428.2969,697.1227,424.2969,691.1227,420.2969,685.1227,424.2969" style="stroke:#181818;stroke-width:1.0;"/><text fill="#000000" font-family="sans-serif" font-size="13" lengthAdjust="spacing" textLength="58" x="703.75" y="417.3638">accounts</text><path d="M685.181,444.2853 C708.7166,445.3144 732.5654,445.4922 755.25,444.2969 C763.4983,443.8622 771.9404,443.3218 780.4598,442.7003 " fill="none" style="stroke:#181818;stroke-width:1.0;"/><polygon fill="#181818" points="685.181,444.2853,691.0005,448.5436,697.1695,444.8095,691.35,440.5512,685.181,444.2853" style="stroke:#181818;stroke-width:1.0;"/><text fill="#000000" font-family="sans-serif" font-size="13" lengthAdjust="spacing" textLength="43" x="711.25" y="440.3638">tokens</text><path d="M335.5,615.5002 C335.5,626.4652 335.5,641.2026 335.5,652.1537 " fill="none" style="stroke:#181818;stroke-width:1.0;"/><polygon fill="#FFFFFF" points="335.5,615.5002,329.5,631.5002,341.5,631.5002,335.5,615.5002" style="stroke:#181818;stroke-width:1.0;"/><path d="M388.3058,546.3912 C373.5165,560.9283 360.3151,573.9048 350.811,583.2469 " fill="none" style="stroke:#181818;stroke-width:1.0;"/><polygon fill="#FFFFFF" points="388.3058,546.3912,372.6892,553.3283,381.1013,561.8862,388.3058,546.3912" style="stroke:#181818;stroke-width:1.0;"/><path d="M552.7981,546.3912 C557.7558,560.9283 562.1813,573.9048 565.3673,583.2469 " fill="none" style="stroke:#181818;stroke-width:1.0;"/><polygon fill="#FFFFFF" points="552.7981,546.3912,552.2838,563.4714,563.6415,559.598,552.7981,546.3912" style="stroke:#181818;stroke-width:1.0;"/><path d="M191.1853,424.2969 C234.4693,424.2969 287.4555,424.2969 337.7768,424.2969 " fill="none" style="stroke:#181818;stroke-width:1.0;"/><polygon fill="none" points="337.7768,424.2969,331.7768,420.2969,325.7768,424.2969,331.7768,428.2969,337.7768,424.2969" style="stroke:#181818;stroke-width:1.0;"/><text fill="#000000" font-family="sans-serif" font-size="13" lengthAdjust="spacing" textLength="28" x="201" y="402.3638">gets</text><text fill="#000000" font-family="sans-serif" font-size="13" font-style="italic" lengthAdjust="spacing" textLength="95" x="233" y="402.3638">strongly-typed</text><text fill="#000000" font-family="sans-serif" font-size="13" lengthAdjust="spacing" textLength="64" x="232.5" y="417.4966">values for</text><path d="M232.6236,180.2969 C266.6148,180.2969 306.083,180.2969 344.4421,180.2969 " fill="none" style="stroke:#181818;stroke-width:1.0;"/><polygon fill="none" points="344.4421,180.2969,338.4421,176.2969,332.4421,180.2969,338.4421,184.2969,344.4421,180.2969" style="stroke:#181818;stroke-width:1.0;"/><text fill="#000000" font-family="sans-serif" font-size="13" lengthAdjust="spacing" textLength="92" x="242.5" y="158.3638">gets database</text><text fill="#000000" font-family="sans-serif" font-size="13" lengthAdjust="spacing" textLength="64" x="256.5" y="173.4966">values for</text><!--SRC=[ZLNVRzem47xtN-5rBs6G8kqnGfKOf1sYWmfefqcJAkCS8SEnezZPXBRzxplRWQQ4JZnnTtptVUVx0U-AagKveuBjLMMepi4moOZ9Z02wD8pl8B6V1kX6bHJCzXcqoN8Ct35D0owOrZJ9M5gol4EsMG8KyiBiQGxv6afD2CWgfqzCLE1vVXDA9xEduVraZDPildh-5g-UR-FLw7Di8m-BU1dFLcXzcIoNazaTMeyFu-7AVJkExsDh_IN4QyVIb7j7IhlQ2ZZhfzL3a5IeQ5H1rSOZ8ryA3QuuurkW8fDmrQ4katQfpwkf7uk46ROMi80Db20vZ6pEO7hZzBfUEWKJJ3lMhomUac3Qcwz_03Skc8000pM2AoP0SxWjLHwyGU-0cqo81W- -bgsrAHatr88ocRfctcBNNJs3GJ3iQIPo9Jitlhpt1KDIuo3MPPohIXgdONsZTY0FNhV56bG52WBBdTSRsOvSNr-xwl39GyyME5-V-FxDhqAOihA2nuI6v-6DW6-ajbqQgr_Irt7aUIoE0UnB9WsK6yQ1eXvehSh1jFTKJsXUc4n99WOOi7FQmVwWR-sU6tTpJ0xmYdLiPyGqNCf-NCpwUbuwgW-B4shxbMLeOu9JFTTp9FNR6_b5LM6PfLiJDkwAlB5EKOIbqGzXLOJ-0WXfgpfUlaDOsDul6b4x13mLRV2EI0iGHOrLmzhQ5EToclk8mczT6whNI7sEvMMB_y_XS9eivktd3VxWgnTVBoYwXiulXXw6-UcauMVmAXImmOaUveuru-0qxVTnsvLCnJuq-mAIVl-xT6khxI_osLcsOqVsq-qwg2Hr_1KtqRjCucXPJjDILSL4Rg7Cy0y2p-BZFm00]--></g></svg>
