<?xml version="1.0" encoding="us-ascii" standalone="no"?><svg xmlns="http://www.w3.org/2000/svg" xmlns:xlink="http://www.w3.org/1999/xlink" contentStyleType="text/css" height="567px" preserveAspectRatio="none" style="width:749px;height:567px;background:#FFFFFF;" version="1.1" viewBox="0 0 749 567" width="749px" zoomAndPan="magnify"><defs/><g><text fill="#000000" font-family="sans-serif" font-size="14" font-weight="bold" lengthAdjust="spacing" textLength="444" x="148.75" y="23.5352">Stacked State for a contract call making an inner contract call</text><g id="elem_Frame2"><rect fill="#F1F1F1" height="94.4414" style="stroke:#181818;stroke-width:0.5;" width="288" x="188.5" y="141.4883"/><text fill="#000000" font-family="sans-serif" font-size="14" lengthAdjust="spacing" textLength="220" x="222.5" y="157.0234">Frame2 : RWCachingStackFrame</text><line style="stroke:#181818;stroke-width:0.5;" x1="189.5" x2="475.5" y1="161.9766" y2="161.9766"/><text fill="#000000" font-family="sans-serif" font-size="14" lengthAdjust="spacing" textLength="116" x="194.5" y="179.5117">ap1 = &lt;ref ap1&gt;</text><text fill="#000000" font-family="sans-serif" font-size="14" lengthAdjust="spacing" textLength="41" x="194.5" y="196">ap2 =</text><text fill="#000000" font-family="sans-serif" font-size="14" font-style="italic" lengthAdjust="spacing" textLength="51" x="239.5" y="196">deleted</text><text fill="#000000" font-family="sans-serif" font-size="14" lengthAdjust="spacing" textLength="36" x="194.5" y="212.4883">am =</text><text fill="#000000" font-family="sans-serif" font-size="14" font-style="italic" lengthAdjust="spacing" textLength="112" x="234.5" y="212.4883">no such account</text><text fill="#000000" font-family="sans-serif" font-size="14" lengthAdjust="spacing" textLength="113" x="350.5" y="212.4883">(a.k.a. "missing")</text><text fill="#000000" font-family="sans-serif" font-size="14" lengthAdjust="spacing" textLength="32" x="194.5" y="228.9766">an =</text><text fill="#000000" font-family="sans-serif" font-size="14" font-style="italic" lengthAdjust="spacing" textLength="57" x="230.5" y="228.9766">updated</text><text fill="#000000" font-family="sans-serif" font-size="14" lengthAdjust="spacing" textLength="179" x="291.5" y="228.9766">&lt;value an&gt; (new account)</text></g><g id="elem_Frame1"><rect fill="#F1F1F1" height="77.9531" style="stroke:#181818;stroke-width:0.5;" width="234" x="215.5" y="271.4883"/><text fill="#000000" font-family="sans-serif" font-size="14" lengthAdjust="spacing" textLength="220" x="222.5" y="287.0234">Frame1 : RWCachingStackFrame</text><line style="stroke:#181818;stroke-width:0.5;" x1="216.5" x2="448.5" y1="291.9766" y2="291.9766"/><text fill="#000000" font-family="sans-serif" font-size="14" lengthAdjust="spacing" textLength="116" x="221.5" y="309.5117">ap1 = &lt;ref ap1&gt;</text><text fill="#000000" font-family="sans-serif" font-size="14" lengthAdjust="spacing" textLength="116" x="221.5" y="326">ap2 = &lt;ref ap2&gt;</text><text fill="#000000" font-family="sans-serif" font-size="14" lengthAdjust="spacing" textLength="36" x="221.5" y="342.4883">am =</text><text fill="#000000" font-family="sans-serif" font-size="14" font-style="italic" lengthAdjust="spacing" textLength="112" x="261.5" y="342.4883">no such account</text></g><g id="elem_ROCache"><rect fill="#F1F1F1" height="77.9531" style="stroke:#181818;stroke-width:0.5;" width="310" x="177.5" y="385.4883"/><text fill="#000000" font-family="sans-serif" font-size="14" lengthAdjust="spacing" textLength="296" x="184.5" y="401.0234">Hedera state cache : ROCachingStackFrame</text><line style="stroke:#181818;stroke-width:0.5;" x1="178.5" x2="486.5" y1="405.9766" y2="405.9766"/><text fill="#000000" font-family="sans-serif" font-size="14" lengthAdjust="spacing" textLength="116" x="183.5" y="423.5117">ap1 = &lt;ref ap1&gt;</text><text fill="#000000" font-family="sans-serif" font-size="14" lengthAdjust="spacing" textLength="116" x="183.5" y="440">ap2 = &lt;ref ap2&gt;</text><text fill="#000000" font-family="sans-serif" font-size="14" lengthAdjust="spacing" textLength="36" x="183.5" y="456.4883">am =</text><text fill="#000000" font-family="sans-serif" font-size="14" font-style="italic" lengthAdjust="spacing" textLength="112" x="223.5" y="456.4883">no such account</text></g><g id="elem_DBAccess"><rect fill="#F1F1F1" height="61.4648" style="stroke:#181818;stroke-width:0.5;" width="219" x="223" y="499.4883"/><text fill="#000000" font-family="sans-serif" font-size="14" lengthAdjust="spacing" textLength="190" x="237.5" y="515.0234">DatabaseBackedStackFrame</text><line style="stroke:#181818;stroke-width:0.5;" x1="224" x2="441" y1="519.9766" y2="519.9766"/><text fill="#000000" font-family="sans-serif" font-size="14" lengthAdjust="spacing" textLength="207" x="229" y="537.5117">ap1 = present account &lt;ap1&gt;</text><text fill="#000000" font-family="sans-serif" font-size="14" lengthAdjust="spacing" textLength="207" x="229" y="554">ap2 = present account &lt;ap2&gt;</text></g><g id="elem_Title"><path d="M193,49.4883 L193,105.4199 L472,105.4199 L472,59.4883 L462,49.4883 L193,49.4883 " fill="#FEFFDD" style="stroke:#181818;stroke-width:0.5;"/><path d="M462,49.4883 L462,59.4883 L472,59.4883 L462,49.4883 " fill="#FEFFDD" style="stroke:#181818;stroke-width:1.0;"/><text fill="#000000" font-family="sans-serif" font-size="13" lengthAdjust="spacing" textLength="258" x="199" y="67.0566">state, for Frame2 after inner contract has</text><text fill="#000000" font-family="sans-serif" font-size="13" lengthAdjust="spacing" textLength="27" x="199" y="82.3672">read</text><text fill="#000000" font-family="monospace" font-size="13" lengthAdjust="spacing" textLength="24" x="230" y="82.0435">ap1</text><text fill="#000000" font-family="sans-serif" font-size="13" lengthAdjust="spacing" textLength="4" x="254" y="82.3672">,</text><text fill="#000000" font-family="monospace" font-size="13" lengthAdjust="spacing" textLength="24" x="262" y="82.0435">ap2</text><text fill="#000000" font-family="sans-serif" font-size="13" lengthAdjust="spacing" textLength="31" x="286" y="82.3672">, and</text><text fill="#000000" font-family="monospace" font-size="13" lengthAdjust="spacing" textLength="16" x="321" y="82.0435">am</text><text fill="#000000" font-family="sans-serif" font-size="13" lengthAdjust="spacing" textLength="59" x="337" y="82.3672">, deleting</text><text fill="#000000" font-family="monospace" font-size="13" lengthAdjust="spacing" textLength="24" x="400" y="82.0435">ap2</text><text fill="#000000" font-family="sans-serif" font-size="13" lengthAdjust="spacing" textLength="31" x="424" y="82.3672">, and</text><text fill="#000000" font-family="sans-serif" font-size="13" lengthAdjust="spacing" textLength="134" x="199" y="97.6777">creating new account</text><text fill="#000000" font-family="monospace" font-size="13" lengthAdjust="spacing" textLength="16" x="337" y="97.354">an</text></g><g id="elem_GMN11"><path d="M608.5,175.9883 L608.5,201.2988 L742.5,201.2988 L742.5,185.9883 L732.5,175.9883 L608.5,175.9883 " fill="#00FFFF" style="stroke:#181818;stroke-width:0.5;"/><path d="M732.5,175.9883 L732.5,185.9883 L742.5,185.9883 L732.5,175.9883 " fill="#00FFFF" style="stroke:#181818;stroke-width:1.0;"/><text fill="#000000" font-family="sans-serif" font-size="13" lengthAdjust="spacing" textLength="113" x="614.5" y="193.5566">most downstream</text></g><g id="elem_GMN14"><path d="M495,167.9883 L495,208.6094 L590,208.6094 L590,177.9883 L580,167.9883 L495,167.9883 " fill="#98FB98" style="stroke:#181818;stroke-width:0.5;"/><path d="M580,167.9883 L580,177.9883 L590,177.9883 L580,167.9883 " fill="#98FB98" style="stroke:#181818;stroke-width:1.0;"/><text fill="#000000" font-family="sans-serif" font-size="13" lengthAdjust="spacing" textLength="38" x="501" y="185.5566">top of</text><text fill="#000000" font-family="sans-serif" font-size="13" lengthAdjust="spacing" textLength="74" x="501" y="200.8672">frame stack</text></g><g id="elem_GMN17"><path d="M33,167.9883 L33,208.6094 L170,208.6094 L170,177.9883 L160,167.9883 L33,167.9883 " fill="#FEFFDD" style="stroke:#181818;stroke-width:0.5;"/><path d="M160,167.9883 L160,177.9883 L170,177.9883 L160,167.9883 " fill="#FEFFDD" style="stroke:#181818;stroke-width:1.0;"/><text fill="#000000" font-family="sans-serif" font-size="13" lengthAdjust="spacing" textLength="114" x="39" y="185.5566">inner contract call</text><text fill="#000000" font-family="sans-serif" font-size="13" lengthAdjust="spacing" textLength="60" x="39" y="200.8672">(called by</text><text fill="#000000" font-family="monospace" font-size="13" lengthAdjust="spacing" textLength="48" x="103" y="200.5435">Frame1</text><text fill="#000000" font-family="sans-serif" font-size="13" lengthAdjust="spacing" textLength="4" x="151" y="200.8672">)</text></g><g id="elem_GMN20"><path d="M6,289.9883 L6,330.6094 L197,330.6094 L197,299.9883 L187,289.9883 L6,289.9883 " fill="#FEFFDD" style="stroke:#181818;stroke-width:0.5;"/><path d="M187,289.9883 L187,299.9883 L197,299.9883 L187,289.9883 " fill="#FEFFDD" style="stroke:#181818;stroke-width:1.0;"/><text fill="#000000" font-family="sans-serif" font-size="13" lengthAdjust="spacing" textLength="170" x="12" y="307.5566">outer contract call (the one</text><text fill="#000000" font-family="sans-serif" font-size="13" lengthAdjust="spacing" textLength="18" x="12" y="322.8672">for</text><text fill="#000000" font-family="monospace" font-size="13" lengthAdjust="spacing" textLength="120" x="34" y="322.5435">eth_EstimateGas</text><text fill="#000000" font-family="sans-serif" font-size="13" lengthAdjust="spacing" textLength="4" x="154" y="322.8672">)</text></g><g id="elem_GMN23"><path d="M506,403.9883 L506,444.6094 L737,444.6094 L737,413.9883 L727,403.9883 L506,403.9883 " fill="#98FB98" style="stroke:#181818;stroke-width:0.5;"/><path d="M727,403.9883 L727,413.9883 L737,413.9883 L727,403.9883 " fill="#98FB98" style="stroke:#181818;stroke-width:1.0;"/><text fill="#000000" font-family="sans-serif" font-size="13" lengthAdjust="spacing" textLength="210" x="512" y="421.5566">empty StateStack starts here with</text><text fill="#000000" font-family="sans-serif" font-size="13" lengthAdjust="spacing" textLength="191" x="512" y="436.8672">a R/O cache over the database</text></g><g id="elem_GMN26"><path d="M54.5,509.4883 L54.5,550.1094 L204.5,550.1094 L204.5,519.4883 L194.5,509.4883 L54.5,509.4883 " fill="#FEFFDD" style="stroke:#181818;stroke-width:0.5;"/><path d="M194.5,509.4883 L194.5,519.4883 L204.5,519.4883 L194.5,509.4883 " fill="#FEFFDD" style="stroke:#181818;stroke-width:1.0;"/><text fill="#000000" font-family="sans-serif" font-size="13" lengthAdjust="spacing" textLength="112" x="60.5" y="527.0566">R/O access to the</text><text fill="#000000" font-family="sans-serif" font-size="13" lengthAdjust="spacing" textLength="129" x="60.5" y="542.3672">database for entities</text></g><g id="elem_GMN29"><path d="M460.5,517.4883 L460.5,542.7988 L576.5,542.7988 L576.5,527.4883 L566.5,517.4883 L460.5,517.4883 " fill="#00FFFF" style="stroke:#181818;stroke-width:0.5;"/><path d="M566.5,517.4883 L566.5,527.4883 L576.5,527.4883 L566.5,517.4883 " fill="#00FFFF" style="stroke:#181818;stroke-width:1.0;"/><text fill="#000000" font-family="sans-serif" font-size="13" lengthAdjust="spacing" textLength="95" x="466.5" y="535.0566">most upstream</text></g><g id="elem_N1"><path d="M490.5,64.9883 L490.5,90.2988 L666.5,90.2988 L666.5,74.9883 L656.5,64.9883 L490.5,64.9883 " fill="#FEFFDD" style="stroke:#181818;stroke-width:0.5;"/><path d="M656.5,64.9883 L656.5,74.9883 L666.5,74.9883 L656.5,64.9883 " fill="#FEFFDD" style="stroke:#181818;stroke-width:1.0;"/><text fill="#000000" font-family="sans-serif" font-size="13" lengthAdjust="spacing" textLength="135" x="496.5" y="82.5566">This stack is growing</text><text fill="#000000" font-family="sans-serif" font-size="13" font-style="italic" lengthAdjust="spacing" textLength="16" x="635.5" y="82.5566">up</text></g><path d="M332.5,235.5402 C332.5,247.3051 332.5,259.8275 332.5,271.1586 " fill="none" style="stroke:#181818;stroke-width:1.0;"/><polygon fill="#181818" points="332.5,271.1586,336.5,262.1586,332.5,266.1586,328.5,262.1586,332.5,271.1586" style="stroke:#181818;stroke-width:1.0;"/><path d="M332.5,349.7191 C332.5,361.2524 332.5,373.9076 332.5,385.4298 " fill="none" style="stroke:#181818;stroke-width:1.0;"/><polygon fill="#181818" points="332.5,385.4298,336.5,376.4298,332.5,380.4298,328.5,376.4298,332.5,385.4298" style="stroke:#181818;stroke-width:1.0;"/><path d="M332.5,463.7338 C332.5,475.481 332.5,488.2265 332.5,499.3098 " fill="none" style="stroke:#181818;stroke-width:1.0;"/><polygon fill="#181818" points="332.5,499.3098,336.5,490.3098,332.5,494.3098,328.5,490.3098,332.5,499.3098" style="stroke:#181818;stroke-width:1.0;"/><path d="M420.387,141.4007 C470.7527,120.5902 534.8253,104.6405 590.5,123.4883 C621.1175,133.8533 649.3822,160.1568 664.3479,175.944 " fill="none" style="stroke:#181818;stroke-width:1.0;stroke-dasharray:7.0,7.0;"/><path d="M476.875,188.4883 C482.8564,188.4883 488.8379,188.4883 494.8193,188.4883 " fill="none" style="stroke:#181818;stroke-width:1.0;stroke-dasharray:7.0,7.0;"/><path d="M170.0781,188.4883 C176.2112,188.4883 182.3444,188.4883 188.4775,188.4883 " fill="none" style="stroke:#181818;stroke-width:1.0;stroke-dasharray:7.0,7.0;"/><path d="M197.1484,310.4883 C203.2287,310.4883 209.3089,310.4883 215.3892,310.4883 " fill="none" style="stroke:#181818;stroke-width:1.0;stroke-dasharray:7.0,7.0;"/><path d="M487.7246,424.4883 C493.7341,424.4883 499.7435,424.4883 505.7529,424.4883 " fill="none" style="stroke:#181818;stroke-width:1.0;stroke-dasharray:7.0,7.0;"/><path d="M204.832,529.9883 C210.8165,529.9883 216.8009,529.9883 222.7853,529.9883 " fill="none" style="stroke:#181818;stroke-width:1.0;stroke-dasharray:7.0,7.0;"/><path d="M442.2109,529.9883 C448.2704,529.9883 454.3298,529.9883 460.3892,529.9883 " fill="none" style="stroke:#181818;stroke-width:1.0;stroke-dasharray:7.0,7.0;"/><!--SRC=[hLHBZzD03BxdLvZXqfLs6xN7gbHYMHudLbfMua0HSYTE4vhCH3FELXNYl-EP92KjXRrmYkFdP_lpl6WSRck42W-sPV0rCHfCkEIAu1EZtb4MlaoGMmS8sXfsg1aqLXNKk2lD5j10QGovKskIsCrtaX_rpc5DSrZ0m-Stg0i9YQcZMW5ww1r-9020pGnUmT9H7iHLfvgBAaqpgeWfIzEehAFEMF2jBW2rjgtXD8K9JdTJd8AgI- -bbhgAxYQwjqs6CGKidx1gIVGhc1ZQ3mckafzdm6VF0Pyz0xnNpLV_WZqk-u4oSWW-pbrBOGeGxYz3wFJqdp0C4EwGSOEURYC5pah2tUrhhSdxST76aIV3GpPOdWAuO1OmqdI_-vkRLJ_Df1zgqFJD9KEJGJSKJvB4M1cG07eCV0sruiYk8rVxl9Yp4FECdWNwuEq8Cr1AW2fr7OLv4D14RHtaIBd0yR4rn6e9ZeOHTuAJKIeXIH2W9H6NWFvIb5b6vkkg0zNXTkMsOB3vWFIbFg1PG6qzGsRtnhEKgF_Yss15MqTaX1bi6p6jJHviOGHwrqLLb8-35fUkT6qcuIDdlZa8_cxsIcxcpmpX4EILECy04vRDM4E2GEQk577nxQtdifPTl4T_J7PiOjZcxouMG7N3X-wfYMmBVJZsK90Zs9TSh0t2GthVtuDz4XYXRjOJzHJlaQ2B68FT3ziGiZP3JEI9aBBaalmPncE6yLhQfbzAvwmUYz9t0mSHjixk0oF2AvEcyL8-pdu1]--></g></svg>
