<?xml version="1.0" encoding="us-ascii" standalone="no"?><svg xmlns="http://www.w3.org/2000/svg" xmlns:xlink="http://www.w3.org/1999/xlink" contentStyleType="text/css" height="590px" preserveAspectRatio="none" style="width:543px;height:590px;background:#FFFFFF;" version="1.1" viewBox="0 0 543 590" width="543px" zoomAndPan="magnify"><defs/><g><text fill="#000000" font-family="monospace" font-size="14" font-weight="bold" lengthAdjust="spacing" textLength="184" x="80" y="22.9079">UpdatableReferenceCache</text><text fill="#000000" font-family="sans-serif" font-size="14" font-weight="bold" lengthAdjust="spacing" textLength="118" x="269" y="23.4982">State Diagram</text><g id="elem_get"><polygon fill="#F1F1F1" points="272.1021,145.7999,284.1021,157.7999,272.1021,169.7999,260.1021,157.7999,272.1021,145.7999" style="stroke:#181818;stroke-width:0.5;"/></g><g id="elem_del"><polygon fill="#F1F1F1" points="370.1021,206.7999,382.1021,218.7999,370.1021,230.7999,358.1021,218.7999,370.1021,206.7999" style="stroke:#181818;stroke-width:0.5;"/></g><rect fill="#FF0000" height="40" rx="12.5" ry="12.5" style="stroke:#181818;stroke-width:0.5;" width="56" x="400.1021" y="513.7999"/><text fill="#000000" font-family="sans-serif" font-size="14" lengthAdjust="spacing" textLength="46" x="405.1021" y="538.6466">invalid</text><rect fill="#F1F1F1" height="42.5938" rx="12.5" ry="12.5" style="stroke:#181818;stroke-width:0.5;" width="67" x="238.6021" y="49.7999"/><text fill="#000000" font-family="sans-serif" font-size="14" lengthAdjust="spacing" textLength="53" x="245.6021" y="67.795">not yet</text><text fill="#000000" font-family="sans-serif" font-size="14" lengthAdjust="spacing" textLength="57" x="243.6021" y="84.0919">fetched</text><rect fill="#F1F1F1" height="40" rx="12.5" ry="12.5" style="stroke:#181818;stroke-width:0.5;" width="67" x="103.6021" y="267.7999"/><text fill="#000000" font-family="sans-serif" font-size="14" lengthAdjust="spacing" textLength="57" x="108.6021" y="292.6466">present</text><rect fill="#F1F1F1" height="40" rx="12.5" ry="12.5" style="stroke:#181818;stroke-width:0.5;" width="64" x="240.1021" y="267.7999"/><text fill="#000000" font-family="sans-serif" font-size="14" lengthAdjust="spacing" textLength="54" x="245.1021" y="292.6466">missing</text><rect fill="#F1F1F1" height="40" rx="12.5" ry="12.5" style="stroke:#181818;stroke-width:0.5;" width="70" x="20.1021" y="405.7999"/><text fill="#000000" font-family="sans-serif" font-size="14" lengthAdjust="spacing" textLength="60" x="25.1021" y="430.6466">updated</text><rect fill="#F1F1F1" height="40" rx="12.5" ry="12.5" style="stroke:#181818;stroke-width:0.5;" width="66" x="291.1021" y="405.7999"/><text fill="#000000" font-family="sans-serif" font-size="14" lengthAdjust="spacing" textLength="56" x="296.1021" y="430.6466">deleted</text><path d="M272.1021,93.1876 C272.1021,109.8043 272.1021,132.4037 272.1021,145.7123 " fill="none" style="stroke:#181818;stroke-width:1.0;"/><polygon fill="#181818" points="272.1021,145.7123,276.1021,136.7123,272.1021,140.7123,268.1021,136.7123,272.1021,145.7123" style="stroke:#181818;stroke-width:1.0;"/><text fill="#000000" font-family="sans-serif" font-size="13" lengthAdjust="spacing" textLength="31" x="273.1021" y="123.8668">get()</text><path d="M259.7383,162.2704 C246.02,166.5757 223.7576,174.9565 208.1021,187.7999 C180.6306,210.337 158.6383,245.9299 146.7647,267.7369 " fill="none" style="stroke:#181818;stroke-width:1.0;"/><polygon fill="#181818" points="146.7647,267.7369,154.5815,261.7454,149.1557,263.3457,147.5554,257.9199,146.7647,267.7369" style="stroke:#181818;stroke-width:1.0;"/><text fill="#000000" font-family="sans-serif" font-size="13" lengthAdjust="spacing" textLength="58" x="209.1021" y="215.8668">retrieved</text><text fill="#000000" font-family="sans-serif" font-size="13" lengthAdjust="spacing" textLength="35" x="220.6021" y="230.9996">value</text><path d="M272.1021,170.1591 C272.1021,192.0631 272.1021,240.3622 272.1021,267.4355 " fill="none" style="stroke:#181818;stroke-width:1.0;"/><polygon fill="#181818" points="272.1021,267.4355,276.1021,258.4355,272.1021,262.4355,268.1021,258.4355,272.1021,267.4355" style="stroke:#181818;stroke-width:1.0;"/><text fill="#000000" font-family="sans-serif" font-size="13" lengthAdjust="spacing" textLength="58" x="273.1021" y="200.8668">retrieved</text><text fill="#000000" font-family="sans-serif" font-size="13" lengthAdjust="spacing" textLength="35" x="284.6021" y="215.9996">value</text><text fill="#000000" font-family="sans-serif" font-size="13" lengthAdjust="spacing" textLength="47" x="278.6021" y="231.1324">doesn't</text><text fill="#000000" font-family="sans-serif" font-size="13" lengthAdjust="spacing" textLength="31" x="286.6021" y="246.2653">exist</text><path d="M238.3673,88.196 C200.4021,107.4355 138.7369,142.9091 98.1021,187.7999 C51.5379,239.2411 41.8165,258.4572 25.1021,325.7999 C18.4642,352.544 15.8958,361.8278 25.1021,387.7999 C27.3677,394.1915 31.2599,400.2847 35.5042,405.6148 " fill="none" style="stroke:#181818;stroke-width:1.0;"/><polygon fill="#181818" points="35.5042,405.6148,33.0271,396.0826,32.3896,401.7034,26.7688,401.0659,35.5042,405.6148" style="stroke:#181818;stroke-width:1.0;"/><text fill="#000000" font-family="sans-serif" font-size="13" lengthAdjust="spacing" textLength="55" x="99.1021" y="223.3668">update()</text><path d="M293.8382,93.0414 C299.1195,98.5727 304.5512,104.711 309.1021,110.7999 C333.4246,143.3428 355.2448,186.5199 364.8791,206.6202 " fill="none" style="stroke:#181818;stroke-width:1.0;"/><polygon fill="#181818" points="364.8791,206.6202,364.5961,196.7754,362.718,202.1113,357.382,200.2332,364.8791,206.6202" style="stroke:#181818;stroke-width:1.0;"/><text fill="#000000" font-family="sans-serif" font-size="13" lengthAdjust="spacing" textLength="50" x="322.1021" y="123.8668">delete()</text><path d="M373.987,230.815 C383.1819,258.8834 403.5275,334.6262 376.1021,387.7999 C371.8358,396.0716 364.7706,402.8986 357.2027,408.3385 " fill="none" style="stroke:#181818;stroke-width:1.0;"/><polygon fill="#181818" points="357.2027,408.3385,366.8453,406.3335,361.2627,405.4202,362.176,399.8375,357.2027,408.3385" style="stroke:#181818;stroke-width:1.0;"/><text fill="#000000" font-family="sans-serif" font-size="13" lengthAdjust="spacing" textLength="58" x="391.1021" y="284.8668">retrieved</text><text fill="#000000" font-family="sans-serif" font-size="13" lengthAdjust="spacing" textLength="35" x="402.6021" y="299.9996">value</text><path d="M382.3028,222.6266 C401.5834,227.8252 438.5056,240.9243 454.1021,267.7999 C501.0882,348.7654 457.4724,467.453 437.1903,513.5246 " fill="none" style="stroke:#181818;stroke-width:1.0;"/><polygon fill="#181818" points="437.1903,513.5246,444.4775,506.8991,439.2049,508.9484,437.1556,503.6758,437.1903,513.5246" style="stroke:#181818;stroke-width:1.0;"/><text fill="#000000" font-family="sans-serif" font-size="13" lengthAdjust="spacing" textLength="58" x="477.1021" y="338.8668">retrieved</text><text fill="#000000" font-family="sans-serif" font-size="13" lengthAdjust="spacing" textLength="35" x="488.6021" y="353.9996">value</text><text fill="#000000" font-family="sans-serif" font-size="13" lengthAdjust="spacing" textLength="47" x="482.6021" y="369.1324">doesn't</text><text fill="#000000" font-family="sans-serif" font-size="13" lengthAdjust="spacing" textLength="31" x="490.6021" y="384.2653">exist</text><polygon fill="none" points="240.0659,287.7999,231.0659,283.7999,235.0659,287.7999,231.0659,291.7999,240.0659,287.7999" style="stroke:none;stroke-width:1.0;"/><polygon fill="none" points="80.5517,405.7685,89.9309,402.7636,84.2833,402.4406,84.6063,396.7929,80.5517,405.7685" style="stroke:none;stroke-width:1.0;"/><polygon fill="none" points="290.7581,417.7854,282.8281,411.9444,285.8749,416.7107,281.1087,419.7574,290.7581,417.7854" style="stroke:none;stroke-width:1.0;"/><path d="M277.5806,308.0979 C283.5319,328.2867 293.7248,360.7449 305.1021,387.7999 C307.5654,393.6576 310.5803,399.8602 313.4765,405.4784 " fill="none" style="stroke:#FFFFFF;stroke-width:1.0;"/><polygon fill="#FFFFFF" points="313.4765,405.4784,312.908,395.6459,311.1855,401.0342,305.7973,399.3116,313.4765,405.4784" style="stroke:#FFFFFF;stroke-width:1.0;"/><polygon fill="none" points="359.1464,206.6164,355.4102,197.5037,355.5342,203.1592,349.8787,203.2833,359.1464,206.6164" style="stroke:none;stroke-width:1.0;"/><polygon fill="none" points="428.8812,513.7668,432.655,504.6696,428.7562,508.7683,424.6575,504.8696,428.8812,513.7668" style="stroke:none;stroke-width:1.0;"/><path d="M170.7836,275.0779 C180.8046,275.4577 188.6021,279.6984 188.6021,287.7999 C188.6021,295.9015 180.8046,300.1422 170.7836,300.5219 " fill="none" style="stroke:#181818;stroke-width:1.0;"/><polygon fill="#181818" points="170.7836,300.5219,179.9286,304.1782,175.78,300.3326,179.6256,296.184,170.7836,300.5219" style="stroke:#181818;stroke-width:1.0;"/><text fill="#000000" font-family="sans-serif" font-size="13" lengthAdjust="spacing" textLength="31" x="189.6021" y="292.3668">get()</text><path d="M103.3984,291.4241 C80.29,295.1832 51.1823,304.2153 36.1021,325.7999 C19.4634,349.6153 32.392,384.1717 43.5388,405.5258 " fill="none" style="stroke:#181818;stroke-width:1.0;"/><polygon fill="#181818" points="43.5388,405.5258,42.9201,395.6964,41.2251,401.0933,35.8281,399.3984,43.5388,405.5258" style="stroke:#181818;stroke-width:1.0;"/><text fill="#000000" font-family="sans-serif" font-size="13" lengthAdjust="spacing" textLength="55" x="37.1021" y="361.3668">update()</text><path d="M132.4874,308.1573 C128.4675,330.241 125.9177,366.0935 145.1021,387.7999 C147.5319,390.5492 239.9294,408.6475 290.9943,418.4749 " fill="none" style="stroke:#181818;stroke-width:1.0;"/><polygon fill="#181818" points="290.9943,418.4749,282.9124,412.8462,286.0844,417.53,281.4005,420.702,290.9943,418.4749" style="stroke:#181818;stroke-width:1.0;"/><text fill="#000000" font-family="sans-serif" font-size="13" lengthAdjust="spacing" textLength="50" x="146.1021" y="361.3668">delete()</text><path d="M304.3224,275.0624 C314.2814,275.3197 322.1021,279.5656 322.1021,287.7999 C322.1021,296.0343 314.2814,300.2802 304.3224,300.5375 " fill="none" style="stroke:#181818;stroke-width:1.0;"/><polygon fill="#181818" points="304.3224,300.5375,313.4227,304.3037,309.3207,300.4083,313.216,296.3063,304.3224,300.5375" style="stroke:#181818;stroke-width:1.0;"/><text fill="#000000" font-family="sans-serif" font-size="13" lengthAdjust="spacing" textLength="31" x="323.1021" y="292.3668">get()</text><path d="M241.631,307.8674 C234.9132,313.081 228.269,319.1501 223.1021,325.7999 C204.7687,349.395 219.6782,368.2255 197.1021,387.7999 C167.3635,413.5846 121.7995,421.7229 90.3436,424.123 " fill="none" style="stroke:#181818;stroke-width:1.0;"/><polygon fill="#181818" points="90.3436,424.123,99.6218,427.4267,95.3291,423.7426,99.0132,419.4499,90.3436,424.123" style="stroke:#181818;stroke-width:1.0;"/><text fill="#000000" font-family="sans-serif" font-size="13" lengthAdjust="spacing" textLength="55" x="224.1021" y="361.3668">update()</text><path d="M290.44,307.9923 C294.812,313.411 299.0806,319.5448 302.1021,325.7999 C314.6613,351.8006 320.1578,385.1176 322.4864,405.7061 " fill="none" style="stroke:#181818;stroke-width:1.0;"/><polygon fill="#181818" points="322.4864,405.7061,325.4496,396.3136,321.9245,400.7378,317.5003,397.2127,322.4864,405.7061" style="stroke:#181818;stroke-width:1.0;"/><text fill="#000000" font-family="sans-serif" font-size="13" lengthAdjust="spacing" textLength="50" x="321.1021" y="361.3668">delete()</text><path d="M90.2699,420.7572 C100.3384,420.955 108.1021,422.6359 108.1021,425.7999 C108.1021,428.964 100.3384,430.6449 90.2699,430.8427 " fill="none" style="stroke:#181818;stroke-width:1.0;"/><polygon fill="#181818" points="90.2699,420.7572,99.1896,424.9332,95.2689,420.8554,99.3467,416.9347,90.2699,420.7572" style="stroke:#181818;stroke-width:1.0;"/><text fill="#000000" font-family="sans-serif" font-size="13" lengthAdjust="spacing" textLength="31" x="109.1021" y="430.3668">get()</text><path d="M90.4613,416.5209 C115.2075,414.0058 141.1021,417.0988 141.1021,425.7999 C141.1021,434.5011 115.2075,437.5941 90.4613,435.0789 " fill="none" style="stroke:#181818;stroke-width:1.0;"/><polygon fill="#181818" points="90.4613,416.5209,99.8197,419.5904,95.4357,416.0154,99.0107,411.6314,90.4613,416.5209" style="stroke:#181818;stroke-width:1.0;"/><text fill="#000000" font-family="sans-serif" font-size="13" lengthAdjust="spacing" textLength="55" x="142.1021" y="430.3668">update()</text><path d="M90.3858,433.9186 C111.7359,438.4117 139.5821,443.5337 164.6021,445.7999 C187.619,447.8847 193.5886,447.9225 216.6021,445.7999 C241.7434,443.4811 269.7769,438.1734 290.9115,433.6084 " fill="none" style="stroke:#181818;stroke-width:1.0;"/><polygon fill="#181818" points="290.9115,433.6084,281.2699,431.5987,286.0242,434.664,282.9589,439.4184,290.9115,433.6084" style="stroke:#181818;stroke-width:1.0;"/><text fill="#000000" font-family="sans-serif" font-size="13" lengthAdjust="spacing" textLength="50" x="165.6021" y="441.8668">delete()</text><path d="M357.4566,415.6972 C367.3803,415.9987 375.1021,419.3663 375.1021,425.7999 C375.1021,432.2335 367.3803,435.6011 357.4566,435.9027 " fill="none" style="stroke:#181818;stroke-width:1.0;"/><polygon fill="#181818" points="357.4566,435.9027,366.5739,439.6275,362.4543,435.7508,366.3309,431.6311,357.4566,435.9027" style="stroke:#181818;stroke-width:1.0;"/><text fill="#000000" font-family="sans-serif" font-size="13" lengthAdjust="spacing" textLength="31" x="376.1021" y="430.3668">get()</text><path d="M90.2691,425.7999 C142.5348,425.7999 240.0156,425.7999 291.0374,425.7999 " fill="none" style="stroke:#181818;stroke-width:1.0;"/><polygon fill="#181818" points="90.2691,425.7999,99.2691,429.7999,95.2691,425.7999,99.2691,421.7999,90.2691,425.7999" style="stroke:#181818;stroke-width:1.0;"/><text fill="#000000" font-family="sans-serif" font-size="13" lengthAdjust="spacing" textLength="55" x="163.1021" y="418.8668">update()</text><path d="M317.372,445.8668 C313.3831,460.8235 310.876,481.4436 321.1021,495.7999 C338.8917,520.7747 374.7334,529.051 400.0202,531.7059 " fill="none" style="stroke:#181818;stroke-width:1.0;"/><polygon fill="#181818" points="400.0202,531.7059,391.4871,526.788,395.0475,531.1838,390.6517,534.7443,400.0202,531.7059" style="stroke:#181818;stroke-width:1.0;"/><text fill="#000000" font-family="sans-serif" font-size="13" lengthAdjust="spacing" textLength="62" x="334.6021" y="476.8668">delete() a</text><text fill="#000000" font-family="sans-serif" font-size="13" lengthAdjust="spacing" textLength="87" x="322.1021" y="491.9996">deleted value</text><text fill="#000000" font-family="sans-serif" font-size="14" lengthAdjust="spacing" textLength="456" x="5.5" y="561.795">Given an account see which (of the 5) states it is in, start there.</text><text fill="#000000" font-family="sans-serif" font-size="14" lengthAdjust="spacing" textLength="465" x="1" y="578.0919">"Not yet fetched" is the state iff none of the other states apply.</text><!--SRC=[ZLGzRzim4DtvAwxAa0IeugbB47XfWMuTMdIgEz3IoI9AaIfvjkCblxqyaPIbM08A63J5T_VUVP4VUYSFdGGjB_P8u3iaQQGWHHgXA7xsjIIvr_WT6tHeAlmignQB0dwG98GlIXwSx4GbUrBMGF5LdT203B-giaSJ617XtAggXGVR0BK8dnx1ixC7HQ32QZxoWID67Jxjp5lnpH9SaA112dBrMy66x3nuWceQCDOW94hBdfbLzhs-F1MYLJK2TZrTe4PVEJM4A4IaE0JsbvUgjQh2xJOTrgXl3mjbJbAhkW3f0Psp3kuSrXarCTITIR4EPiDUYE4Fod8xo3tp-l0eUCzdlKEFXiyTabDumdh7KaSSJJhblJA71PETgIrwSn-4yLLvceeTkMjO1w-u2veJb9DyvXK7X3_JCKQdcsYoIKp-VsAv9tS1ij1OLs5ET9EosQJuDbao6EuH9FY_H-bGvBgKJXrQ-dL7JXhV1yJGxsjDhcQrFPiRgwGXSYrMo5888XTwIYRxzrRlykBHYn34cKcPX8lWPOUWGuqqZmEtCrcK87LdFS7PkZy-Dderj0Mzs8EzVKrQOHtS-IhaUZ9QGkh982GojA8ri8fhIMVJ6QTsYYqCs1I-Zj8uPTS2pwOwKa-n1Uefl4GzBv97tPJQsfxRaDd6lcXimfl4BqC9-_3WpOeqpWfRpMA9SQxZOwppSLi9U6p638yQ8xQkCNNFLpAJWmoNCU73tVm7]--></g></svg>
